<mxfile host="Electron" modified="2024-05-21T23:11:25.843Z" agent="Mozilla/5.0 (Windows NT 10.0; Win64; x64) AppleWebKit/537.36 (KHTML, like Gecko) draw.io/24.4.0 Chrome/120.0.6099.109 Electron/28.1.0 Safari/537.36" etag="xOZ3XNnN_wIiTbmgC31V" version="24.4.0" type="device">
  <diagram name="Page-1" id="KZN-zyBD-0XipZeYQRDT">
    <mxGraphModel dx="687" dy="397" grid="1" gridSize="10" guides="1" tooltips="1" connect="1" arrows="1" fold="1" page="1" pageScale="1" pageWidth="500" pageHeight="200" math="0" shadow="0">
      <root>
        <mxCell id="0" />
        <mxCell id="1" parent="0" />
        <mxCell id="Tk_3Gi3uglissdDTNCGx-218" value="" style="group" vertex="1" connectable="0" parent="1">
          <mxGeometry x="9" y="56" width="482.6" height="88.9" as="geometry" />
        </mxCell>
        <mxCell id="9eh16xiQdjSHdPkHuFP6-378" value="" style="rounded=0;whiteSpace=wrap;html=1;strokeColor=#aaaaaa;fillColor=#bfbfbf;strokeWidth=1;container=0;part=1;movable=1;resizable=1;rotatable=1;deletable=1;editable=1;locked=0;connectable=1;" parent="Tk_3Gi3uglissdDTNCGx-218" vertex="1">
          <mxGeometry width="482.6" height="88.9" as="geometry" />
        </mxCell>
        <mxCell id="9eh16xiQdjSHdPkHuFP6-379" value="" style="rounded=0;whiteSpace=wrap;html=1;strokeColor=#aaaaaa;fillColor=#222222;strokeWidth=1;movable=1;resizable=1;rotatable=1;deletable=1;editable=1;locked=0;connectable=1;container=0;" parent="Tk_3Gi3uglissdDTNCGx-218" vertex="1">
          <mxGeometry x="18" width="446.6" height="88.9" as="geometry" />
        </mxCell>
        <mxCell id="Tk_3Gi3uglissdDTNCGx-26" value="" style="group" vertex="1" connectable="0" parent="Tk_3Gi3uglissdDTNCGx-218">
          <mxGeometry x="4" y="6.000000000000007" width="14.000000000000025" height="77" as="geometry" />
        </mxCell>
        <mxCell id="Tk_3Gi3uglissdDTNCGx-27" value="" style="group" vertex="1" connectable="0" parent="Tk_3Gi3uglissdDTNCGx-26">
          <mxGeometry x="0.003750000000025011" y="60.95000000000001" width="10" height="6" as="geometry" />
        </mxCell>
        <mxCell id="Tk_3Gi3uglissdDTNCGx-28" value="" style="rounded=0;whiteSpace=wrap;html=1;fillColor=#000000;fontColor=#ffffff;strokeColor=none;container=0;" vertex="1" parent="Tk_3Gi3uglissdDTNCGx-27">
          <mxGeometry x="3" width="4" height="6" as="geometry" />
        </mxCell>
        <mxCell id="Tk_3Gi3uglissdDTNCGx-29" value="" style="ellipse;whiteSpace=wrap;html=1;aspect=fixed;strokeColor=none;fillColor=#000000;" vertex="1" parent="Tk_3Gi3uglissdDTNCGx-27">
          <mxGeometry x="4" width="6" height="6" as="geometry" />
        </mxCell>
        <mxCell id="Tk_3Gi3uglissdDTNCGx-30" value="" style="ellipse;whiteSpace=wrap;html=1;aspect=fixed;strokeColor=none;fillColor=#000000;" vertex="1" parent="Tk_3Gi3uglissdDTNCGx-27">
          <mxGeometry width="6" height="6" as="geometry" />
        </mxCell>
        <mxCell id="Tk_3Gi3uglissdDTNCGx-31" value="" style="group" vertex="1" connectable="0" parent="Tk_3Gi3uglissdDTNCGx-26">
          <mxGeometry y="10.04999999999999" width="10" height="6" as="geometry" />
        </mxCell>
        <mxCell id="Tk_3Gi3uglissdDTNCGx-32" value="" style="rounded=0;whiteSpace=wrap;html=1;fillColor=#000000;fontColor=#ffffff;strokeColor=none;container=0;" vertex="1" parent="Tk_3Gi3uglissdDTNCGx-31">
          <mxGeometry x="3" width="4" height="6" as="geometry" />
        </mxCell>
        <mxCell id="Tk_3Gi3uglissdDTNCGx-33" value="" style="ellipse;whiteSpace=wrap;html=1;aspect=fixed;strokeColor=none;fillColor=#000000;" vertex="1" parent="Tk_3Gi3uglissdDTNCGx-31">
          <mxGeometry x="4" width="6" height="6" as="geometry" />
        </mxCell>
        <mxCell id="Tk_3Gi3uglissdDTNCGx-34" value="" style="ellipse;whiteSpace=wrap;html=1;aspect=fixed;strokeColor=none;fillColor=#000000;" vertex="1" parent="Tk_3Gi3uglissdDTNCGx-31">
          <mxGeometry width="6" height="6" as="geometry" />
        </mxCell>
        <mxCell id="Tk_3Gi3uglissdDTNCGx-35" value="" style="rounded=0;whiteSpace=wrap;html=1;strokeColor=#aaaaaa;fillColor=#bfbfbf;strokeWidth=1;movable=1;resizable=1;rotatable=1;deletable=1;editable=1;locked=0;connectable=1;container=0;" vertex="1" parent="Tk_3Gi3uglissdDTNCGx-26">
          <mxGeometry x="4.000000000000025" width="10" height="77" as="geometry" />
        </mxCell>
        <mxCell id="Tk_3Gi3uglissdDTNCGx-36" value="" style="group;flipH=1;" vertex="1" connectable="0" parent="Tk_3Gi3uglissdDTNCGx-218">
          <mxGeometry x="464.6" y="6" width="14.000000000000025" height="77" as="geometry" />
        </mxCell>
        <mxCell id="Tk_3Gi3uglissdDTNCGx-37" value="" style="group" vertex="1" connectable="0" parent="Tk_3Gi3uglissdDTNCGx-36">
          <mxGeometry x="3.9962500000000034" y="60.95000000000001" width="10" height="6" as="geometry" />
        </mxCell>
        <mxCell id="Tk_3Gi3uglissdDTNCGx-38" value="" style="rounded=0;whiteSpace=wrap;html=1;fillColor=#000000;fontColor=#ffffff;strokeColor=none;container=0;" vertex="1" parent="Tk_3Gi3uglissdDTNCGx-37">
          <mxGeometry x="3" width="4" height="6" as="geometry" />
        </mxCell>
        <mxCell id="Tk_3Gi3uglissdDTNCGx-39" value="" style="ellipse;whiteSpace=wrap;html=1;aspect=fixed;strokeColor=none;fillColor=#000000;" vertex="1" parent="Tk_3Gi3uglissdDTNCGx-37">
          <mxGeometry x="4" width="6" height="6" as="geometry" />
        </mxCell>
        <mxCell id="Tk_3Gi3uglissdDTNCGx-40" value="" style="ellipse;whiteSpace=wrap;html=1;aspect=fixed;strokeColor=none;fillColor=#000000;" vertex="1" parent="Tk_3Gi3uglissdDTNCGx-37">
          <mxGeometry width="6" height="6" as="geometry" />
        </mxCell>
        <mxCell id="Tk_3Gi3uglissdDTNCGx-41" value="" style="group" vertex="1" connectable="0" parent="Tk_3Gi3uglissdDTNCGx-36">
          <mxGeometry x="4.000000000000028" y="10.04999999999999" width="10" height="6" as="geometry" />
        </mxCell>
        <mxCell id="Tk_3Gi3uglissdDTNCGx-42" value="" style="rounded=0;whiteSpace=wrap;html=1;fillColor=#000000;fontColor=#ffffff;strokeColor=none;container=0;" vertex="1" parent="Tk_3Gi3uglissdDTNCGx-41">
          <mxGeometry x="3" width="4" height="6" as="geometry" />
        </mxCell>
        <mxCell id="Tk_3Gi3uglissdDTNCGx-43" value="" style="ellipse;whiteSpace=wrap;html=1;aspect=fixed;strokeColor=none;fillColor=#000000;" vertex="1" parent="Tk_3Gi3uglissdDTNCGx-41">
          <mxGeometry x="4" width="6" height="6" as="geometry" />
        </mxCell>
        <mxCell id="Tk_3Gi3uglissdDTNCGx-44" value="" style="ellipse;whiteSpace=wrap;html=1;aspect=fixed;strokeColor=none;fillColor=#000000;" vertex="1" parent="Tk_3Gi3uglissdDTNCGx-41">
          <mxGeometry width="6" height="6" as="geometry" />
        </mxCell>
        <mxCell id="Tk_3Gi3uglissdDTNCGx-45" value="" style="rounded=0;whiteSpace=wrap;html=1;strokeColor=#aaaaaa;fillColor=#bfbfbf;strokeWidth=1;movable=1;resizable=1;rotatable=1;deletable=1;editable=1;locked=0;connectable=1;container=0;" vertex="1" parent="Tk_3Gi3uglissdDTNCGx-36">
          <mxGeometry x="3.552713678800501e-15" width="10" height="77" as="geometry" />
        </mxCell>
        <mxCell id="5G7c4jUEA5Og9TPHIXhp-407" value="" style="rounded=0;whiteSpace=wrap;html=1;strokeColor=none;fillColor=#333333;strokeWidth=0.5;movable=1;resizable=1;rotatable=1;deletable=1;editable=1;locked=0;connectable=1;container=0;" parent="Tk_3Gi3uglissdDTNCGx-218" vertex="1">
          <mxGeometry x="19.83" y="61.010754716981154" width="109.95212765957447" height="26.179245283018872" as="geometry" />
        </mxCell>
        <mxCell id="5G7c4jUEA5Og9TPHIXhp-408" value="" style="rounded=0;whiteSpace=wrap;html=1;strokeColor=#222222;fillColor=#222222;strokeWidth=0.5;movable=1;resizable=1;rotatable=1;deletable=1;editable=1;locked=0;connectable=1;container=0;" parent="Tk_3Gi3uglissdDTNCGx-218" vertex="1">
          <mxGeometry x="22.971489361702126" y="64.15226415094341" width="101.57482269503546" height="19.89622641509434" as="geometry" />
        </mxCell>
        <mxCell id="5G7c4jUEA5Og9TPHIXhp-409" value="" style="rounded=1;whiteSpace=wrap;html=1;strokeColor=#222222;rotation=0;fillColor=#60a917;fontColor=#ffffff;movable=1;resizable=1;rotatable=1;deletable=1;editable=1;locked=0;connectable=1;container=0;direction=south;strokeWidth=0.1;" parent="Tk_3Gi3uglissdDTNCGx-218" vertex="1">
          <mxGeometry x="125.59347517730498" y="81.95415094339623" width="3.141489361702128" height="4.188679245283019" as="geometry" />
        </mxCell>
        <mxCell id="5G7c4jUEA5Og9TPHIXhp-410" value="" style="rounded=1;whiteSpace=wrap;html=1;strokeColor=#222222;rotation=0;fillColor=#0050ef;fontColor=#ffffff;movable=1;resizable=1;rotatable=1;deletable=1;editable=1;locked=0;connectable=1;container=0;direction=south;strokeWidth=0.1;" parent="Tk_3Gi3uglissdDTNCGx-218" vertex="1">
          <mxGeometry x="125.59347517730498" y="72.52962264150943" width="3.141489361702128" height="4.188679245283019" as="geometry" />
        </mxCell>
        <mxCell id="5G7c4jUEA5Og9TPHIXhp-411" value="" style="rounded=1;whiteSpace=wrap;html=1;strokeColor=none;fillColor=#0050ef;strokeWidth=0.5;fontColor=#ffffff;glass=0;movable=1;resizable=1;rotatable=1;deletable=1;editable=1;locked=0;connectable=1;container=0;" parent="Tk_3Gi3uglissdDTNCGx-218" vertex="1">
          <mxGeometry x="98.36723404255319" y="67.29377358490567" width="8.377304964539007" height="13.613207547169813" as="geometry" />
        </mxCell>
        <mxCell id="5G7c4jUEA5Og9TPHIXhp-412" value="" style="shape=or;whiteSpace=wrap;html=1;fillColor=#0050ef;fontColor=#ffffff;strokeColor=none;movable=1;resizable=1;rotatable=1;deletable=1;editable=1;locked=0;connectable=1;container=0;" parent="Tk_3Gi3uglissdDTNCGx-218" vertex="1">
          <mxGeometry x="105.69737588652482" y="67.29377358490567" width="3.141489361702128" height="13.613207547169813" as="geometry" />
        </mxCell>
        <mxCell id="5G7c4jUEA5Og9TPHIXhp-413" value="" style="sketch=0;html=1;strokeColor=#222222;shadow=0;fillColor=none;verticalAlign=top;labelPosition=center;verticalLabelPosition=bottom;shape=mxgraph.gcp2.a7_power;gradientColor=none;strokeWidth=0.1;movable=1;resizable=1;rotatable=1;deletable=1;editable=1;locked=0;connectable=1;container=0;" parent="Tk_3Gi3uglissdDTNCGx-218" vertex="1">
          <mxGeometry x="125.59347517730498" y="68.34094339622644" width="3.141489361702128" height="3.1415094339622645" as="geometry" />
        </mxCell>
        <mxCell id="5G7c4jUEA5Og9TPHIXhp-414" value="" style="strokeWidth=0.1;html=1;shape=mxgraph.flowchart.database;whiteSpace=wrap;strokeColor=#222222;fillColor=none;movable=1;resizable=1;rotatable=1;deletable=1;editable=1;locked=0;connectable=1;container=0;" parent="Tk_3Gi3uglissdDTNCGx-218" vertex="1">
          <mxGeometry x="125.59347517730498" y="77.76547169811323" width="3.141489361702128" height="3.1415094339622645" as="geometry" />
        </mxCell>
        <mxCell id="5G7c4jUEA5Og9TPHIXhp-415" value="" style="rounded=0;whiteSpace=wrap;html=1;strokeColor=none;fillColor=#333333;strokeWidth=0.5;movable=1;resizable=1;rotatable=1;deletable=1;editable=1;locked=0;connectable=1;container=0;" parent="Tk_3Gi3uglissdDTNCGx-218" vertex="1">
          <mxGeometry x="22.971489361702126" y="64.15226415094341" width="80.63156028368795" height="19.89622641509434" as="geometry" />
        </mxCell>
        <mxCell id="5G7c4jUEA5Og9TPHIXhp-416" value="" style="rounded=0;whiteSpace=wrap;html=1;strokeColor=none;fillColor=#2D2D2D;strokeWidth=0.2;movable=1;resizable=1;rotatable=1;deletable=1;editable=1;locked=0;connectable=1;container=0;" parent="Tk_3Gi3uglissdDTNCGx-218" vertex="1">
          <mxGeometry x="88.94276595744681" y="66.77018867924531" width="4.188652482269504" height="14.660377358490567" as="geometry" />
        </mxCell>
        <mxCell id="5G7c4jUEA5Og9TPHIXhp-417" value="" style="rounded=0;whiteSpace=wrap;html=1;strokeColor=none;fillColor=#2D2D2D;strokeWidth=0.2;movable=1;resizable=1;rotatable=1;deletable=1;editable=1;locked=0;connectable=1;container=0;" parent="Tk_3Gi3uglissdDTNCGx-218" vertex="1">
          <mxGeometry x="29.25446808510638" y="66.77018867924531" width="4.188652482269504" height="14.660377358490567" as="geometry" />
        </mxCell>
        <mxCell id="5G7c4jUEA5Og9TPHIXhp-418" value="" style="rounded=0;whiteSpace=wrap;html=1;strokeColor=none;fillColor=#222222;strokeWidth=0.2;movable=1;resizable=1;rotatable=1;deletable=1;editable=1;locked=0;connectable=1;container=0;" parent="Tk_3Gi3uglissdDTNCGx-218" vertex="1">
          <mxGeometry x="33.443120567375885" y="66.77018867924531" width="55.499645390070924" height="2.0943396226415096" as="geometry" />
        </mxCell>
        <mxCell id="5G7c4jUEA5Og9TPHIXhp-419" value="" style="rounded=0;whiteSpace=wrap;html=1;strokeColor=none;fillColor=#222222;strokeWidth=0.2;movable=1;resizable=1;rotatable=1;deletable=1;editable=1;locked=0;connectable=1;container=0;" parent="Tk_3Gi3uglissdDTNCGx-218" vertex="1">
          <mxGeometry x="33.443120567375885" y="70.9588679245283" width="55.499645390070924" height="2.0943396226415096" as="geometry" />
        </mxCell>
        <mxCell id="5G7c4jUEA5Og9TPHIXhp-420" value="" style="rounded=0;whiteSpace=wrap;html=1;strokeColor=none;fillColor=#222222;strokeWidth=0.2;movable=1;resizable=1;rotatable=1;deletable=1;editable=1;locked=0;connectable=1;container=0;" parent="Tk_3Gi3uglissdDTNCGx-218" vertex="1">
          <mxGeometry x="33.443120567375885" y="75.14754716981133" width="55.499645390070924" height="2.0943396226415096" as="geometry" />
        </mxCell>
        <mxCell id="5G7c4jUEA5Og9TPHIXhp-421" value="" style="rounded=0;whiteSpace=wrap;html=1;strokeColor=none;fillColor=#222222;strokeWidth=0.2;movable=1;resizable=1;rotatable=1;deletable=1;editable=1;locked=0;connectable=1;container=0;" parent="Tk_3Gi3uglissdDTNCGx-218" vertex="1">
          <mxGeometry x="33.443120567375885" y="79.33622641509436" width="55.499645390070924" height="2.0943396226415096" as="geometry" />
        </mxCell>
        <mxCell id="5G7c4jUEA5Og9TPHIXhp-422" value="" style="rounded=0;whiteSpace=wrap;html=1;strokeColor=none;fillColor=#2D2D2D;strokeWidth=0.2;movable=1;resizable=1;rotatable=1;deletable=1;editable=1;locked=0;connectable=1;container=0;" parent="Tk_3Gi3uglissdDTNCGx-218" vertex="1">
          <mxGeometry x="50.1977304964539" y="66.77018867924531" width="2.094326241134752" height="14.660377358490567" as="geometry" />
        </mxCell>
        <mxCell id="5G7c4jUEA5Og9TPHIXhp-423" value="" style="rounded=0;whiteSpace=wrap;html=1;strokeColor=none;fillColor=#2D2D2D;strokeWidth=0.2;movable=1;resizable=1;rotatable=1;deletable=1;editable=1;locked=0;connectable=1;container=0;" parent="Tk_3Gi3uglissdDTNCGx-218" vertex="1">
          <mxGeometry x="70.09382978723404" y="66.77018867924531" width="2.094326241134752" height="14.660377358490567" as="geometry" />
        </mxCell>
        <mxCell id="5G7c4jUEA5Og9TPHIXhp-424" value="" style="rounded=0;whiteSpace=wrap;html=1;strokeColor=none;fillColor=#333333;strokeWidth=0.5;movable=1;resizable=1;rotatable=1;deletable=1;editable=1;locked=0;connectable=1;container=0;" parent="Tk_3Gi3uglissdDTNCGx-218" vertex="1">
          <mxGeometry x="33.443120567375885" y="77.24188679245285" width="55.499645390070924" height="2.0943396226415096" as="geometry" />
        </mxCell>
        <mxCell id="5G7c4jUEA5Og9TPHIXhp-425" value="" style="rounded=0;whiteSpace=wrap;html=1;strokeColor=none;fillColor=#333333;strokeWidth=0.5;movable=1;resizable=1;rotatable=1;deletable=1;editable=1;locked=0;connectable=1;container=0;" parent="Tk_3Gi3uglissdDTNCGx-218" vertex="1">
          <mxGeometry x="33.443120567375885" y="73.05320754716982" width="55.499645390070924" height="2.0943396226415096" as="geometry" />
        </mxCell>
        <mxCell id="5G7c4jUEA5Og9TPHIXhp-426" value="" style="rounded=0;whiteSpace=wrap;html=1;strokeColor=none;fillColor=#333333;strokeWidth=0.5;movable=1;resizable=1;rotatable=1;deletable=1;editable=1;locked=0;connectable=1;container=0;" parent="Tk_3Gi3uglissdDTNCGx-218" vertex="1">
          <mxGeometry x="33.443120567375885" y="68.86452830188679" width="55.499645390070924" height="2.0943396226415096" as="geometry" />
        </mxCell>
        <mxCell id="5G7c4jUEA5Og9TPHIXhp-427" value="" style="rounded=0;whiteSpace=wrap;html=1;strokeColor=none;fillColor=#333333;strokeWidth=0.5;movable=1;resizable=1;rotatable=1;deletable=1;editable=1;locked=0;connectable=1;container=0;" parent="Tk_3Gi3uglissdDTNCGx-218" vertex="1">
          <mxGeometry x="130.82929078014183" y="61.010754716981154" width="109.95212765957447" height="26.179245283018872" as="geometry" />
        </mxCell>
        <mxCell id="5G7c4jUEA5Og9TPHIXhp-428" value="" style="rounded=0;whiteSpace=wrap;html=1;strokeColor=#222222;fillColor=#222222;strokeWidth=0.5;movable=1;resizable=1;rotatable=1;deletable=1;editable=1;locked=0;connectable=1;container=0;" parent="Tk_3Gi3uglissdDTNCGx-218" vertex="1">
          <mxGeometry x="133.970780141844" y="64.15226415094341" width="101.57482269503546" height="19.89622641509434" as="geometry" />
        </mxCell>
        <mxCell id="5G7c4jUEA5Og9TPHIXhp-429" value="" style="rounded=1;whiteSpace=wrap;html=1;strokeColor=#222222;rotation=0;fillColor=#60a917;fontColor=#ffffff;movable=1;resizable=1;rotatable=1;deletable=1;editable=1;locked=0;connectable=1;container=0;direction=south;strokeWidth=0.1;" parent="Tk_3Gi3uglissdDTNCGx-218" vertex="1">
          <mxGeometry x="236.59276595744683" y="81.95415094339623" width="3.141489361702128" height="4.188679245283019" as="geometry" />
        </mxCell>
        <mxCell id="5G7c4jUEA5Og9TPHIXhp-430" value="" style="rounded=1;whiteSpace=wrap;html=1;strokeColor=#222222;rotation=0;fillColor=#0050ef;fontColor=#ffffff;movable=1;resizable=1;rotatable=1;deletable=1;editable=1;locked=0;connectable=1;container=0;direction=south;strokeWidth=0.1;" parent="Tk_3Gi3uglissdDTNCGx-218" vertex="1">
          <mxGeometry x="236.59276595744683" y="72.52962264150943" width="3.141489361702128" height="4.188679245283019" as="geometry" />
        </mxCell>
        <mxCell id="5G7c4jUEA5Og9TPHIXhp-431" value="" style="rounded=1;whiteSpace=wrap;html=1;strokeColor=none;fillColor=#0050ef;strokeWidth=0.5;fontColor=#ffffff;glass=0;movable=1;resizable=1;rotatable=1;deletable=1;editable=1;locked=0;connectable=1;container=0;" parent="Tk_3Gi3uglissdDTNCGx-218" vertex="1">
          <mxGeometry x="209.36652482269506" y="67.29377358490567" width="8.377304964539007" height="13.613207547169813" as="geometry" />
        </mxCell>
        <mxCell id="5G7c4jUEA5Og9TPHIXhp-432" value="" style="shape=or;whiteSpace=wrap;html=1;fillColor=#0050ef;fontColor=#ffffff;strokeColor=none;movable=1;resizable=1;rotatable=1;deletable=1;editable=1;locked=0;connectable=1;container=0;" parent="Tk_3Gi3uglissdDTNCGx-218" vertex="1">
          <mxGeometry x="216.69666666666666" y="67.29377358490567" width="3.141489361702128" height="13.613207547169813" as="geometry" />
        </mxCell>
        <mxCell id="5G7c4jUEA5Og9TPHIXhp-433" value="" style="sketch=0;html=1;strokeColor=#222222;shadow=0;fillColor=none;verticalAlign=top;labelPosition=center;verticalLabelPosition=bottom;shape=mxgraph.gcp2.a7_power;gradientColor=none;strokeWidth=0.1;movable=1;resizable=1;rotatable=1;deletable=1;editable=1;locked=0;connectable=1;container=0;" parent="Tk_3Gi3uglissdDTNCGx-218" vertex="1">
          <mxGeometry x="236.59276595744683" y="68.34094339622644" width="3.141489361702128" height="3.1415094339622645" as="geometry" />
        </mxCell>
        <mxCell id="5G7c4jUEA5Og9TPHIXhp-434" value="" style="strokeWidth=0.1;html=1;shape=mxgraph.flowchart.database;whiteSpace=wrap;strokeColor=#222222;fillColor=none;movable=1;resizable=1;rotatable=1;deletable=1;editable=1;locked=0;connectable=1;container=0;" parent="Tk_3Gi3uglissdDTNCGx-218" vertex="1">
          <mxGeometry x="236.59276595744683" y="77.76547169811323" width="3.141489361702128" height="3.1415094339622645" as="geometry" />
        </mxCell>
        <mxCell id="5G7c4jUEA5Og9TPHIXhp-435" value="" style="rounded=0;whiteSpace=wrap;html=1;strokeColor=none;fillColor=#333333;strokeWidth=0.5;movable=1;resizable=1;rotatable=1;deletable=1;editable=1;locked=0;connectable=1;container=0;" parent="Tk_3Gi3uglissdDTNCGx-218" vertex="1">
          <mxGeometry x="133.970780141844" y="64.15226415094341" width="80.63156028368795" height="19.89622641509434" as="geometry" />
        </mxCell>
        <mxCell id="5G7c4jUEA5Og9TPHIXhp-436" value="" style="rounded=0;whiteSpace=wrap;html=1;strokeColor=none;fillColor=#2D2D2D;strokeWidth=0.2;movable=1;resizable=1;rotatable=1;deletable=1;editable=1;locked=0;connectable=1;container=0;" parent="Tk_3Gi3uglissdDTNCGx-218" vertex="1">
          <mxGeometry x="199.94205673758864" y="66.77018867924531" width="4.188652482269504" height="14.660377358490567" as="geometry" />
        </mxCell>
        <mxCell id="5G7c4jUEA5Og9TPHIXhp-437" value="" style="rounded=0;whiteSpace=wrap;html=1;strokeColor=none;fillColor=#2D2D2D;strokeWidth=0.2;movable=1;resizable=1;rotatable=1;deletable=1;editable=1;locked=0;connectable=1;container=0;" parent="Tk_3Gi3uglissdDTNCGx-218" vertex="1">
          <mxGeometry x="140.25375886524824" y="66.77018867924531" width="4.188652482269504" height="14.660377358490567" as="geometry" />
        </mxCell>
        <mxCell id="5G7c4jUEA5Og9TPHIXhp-438" value="" style="rounded=0;whiteSpace=wrap;html=1;strokeColor=none;fillColor=#222222;strokeWidth=0.2;movable=1;resizable=1;rotatable=1;deletable=1;editable=1;locked=0;connectable=1;container=0;" parent="Tk_3Gi3uglissdDTNCGx-218" vertex="1">
          <mxGeometry x="144.44241134751775" y="66.77018867924531" width="55.499645390070924" height="2.0943396226415096" as="geometry" />
        </mxCell>
        <mxCell id="5G7c4jUEA5Og9TPHIXhp-439" value="" style="rounded=0;whiteSpace=wrap;html=1;strokeColor=none;fillColor=#222222;strokeWidth=0.2;movable=1;resizable=1;rotatable=1;deletable=1;editable=1;locked=0;connectable=1;container=0;" parent="Tk_3Gi3uglissdDTNCGx-218" vertex="1">
          <mxGeometry x="144.44241134751775" y="70.9588679245283" width="55.499645390070924" height="2.0943396226415096" as="geometry" />
        </mxCell>
        <mxCell id="5G7c4jUEA5Og9TPHIXhp-440" value="" style="rounded=0;whiteSpace=wrap;html=1;strokeColor=none;fillColor=#222222;strokeWidth=0.2;movable=1;resizable=1;rotatable=1;deletable=1;editable=1;locked=0;connectable=1;container=0;" parent="Tk_3Gi3uglissdDTNCGx-218" vertex="1">
          <mxGeometry x="144.44241134751775" y="75.14754716981133" width="55.499645390070924" height="2.0943396226415096" as="geometry" />
        </mxCell>
        <mxCell id="5G7c4jUEA5Og9TPHIXhp-441" value="" style="rounded=0;whiteSpace=wrap;html=1;strokeColor=none;fillColor=#222222;strokeWidth=0.2;movable=1;resizable=1;rotatable=1;deletable=1;editable=1;locked=0;connectable=1;container=0;" parent="Tk_3Gi3uglissdDTNCGx-218" vertex="1">
          <mxGeometry x="144.44241134751775" y="79.33622641509436" width="55.499645390070924" height="2.0943396226415096" as="geometry" />
        </mxCell>
        <mxCell id="5G7c4jUEA5Og9TPHIXhp-442" value="" style="rounded=0;whiteSpace=wrap;html=1;strokeColor=none;fillColor=#2D2D2D;strokeWidth=0.2;movable=1;resizable=1;rotatable=1;deletable=1;editable=1;locked=0;connectable=1;container=0;" parent="Tk_3Gi3uglissdDTNCGx-218" vertex="1">
          <mxGeometry x="161.19702127659576" y="66.77018867924531" width="2.094326241134752" height="14.660377358490567" as="geometry" />
        </mxCell>
        <mxCell id="5G7c4jUEA5Og9TPHIXhp-443" value="" style="rounded=0;whiteSpace=wrap;html=1;strokeColor=none;fillColor=#2D2D2D;strokeWidth=0.2;movable=1;resizable=1;rotatable=1;deletable=1;editable=1;locked=0;connectable=1;container=0;" parent="Tk_3Gi3uglissdDTNCGx-218" vertex="1">
          <mxGeometry x="181.09312056737588" y="66.77018867924531" width="2.094326241134752" height="14.660377358490567" as="geometry" />
        </mxCell>
        <mxCell id="5G7c4jUEA5Og9TPHIXhp-444" value="" style="rounded=0;whiteSpace=wrap;html=1;strokeColor=none;fillColor=#333333;strokeWidth=0.5;movable=1;resizable=1;rotatable=1;deletable=1;editable=1;locked=0;connectable=1;container=0;" parent="Tk_3Gi3uglissdDTNCGx-218" vertex="1">
          <mxGeometry x="144.44241134751775" y="77.24188679245285" width="55.499645390070924" height="2.0943396226415096" as="geometry" />
        </mxCell>
        <mxCell id="5G7c4jUEA5Og9TPHIXhp-445" value="" style="rounded=0;whiteSpace=wrap;html=1;strokeColor=none;fillColor=#333333;strokeWidth=0.5;movable=1;resizable=1;rotatable=1;deletable=1;editable=1;locked=0;connectable=1;container=0;" parent="Tk_3Gi3uglissdDTNCGx-218" vertex="1">
          <mxGeometry x="144.44241134751775" y="73.05320754716982" width="55.499645390070924" height="2.0943396226415096" as="geometry" />
        </mxCell>
        <mxCell id="5G7c4jUEA5Og9TPHIXhp-446" value="" style="rounded=0;whiteSpace=wrap;html=1;strokeColor=none;fillColor=#333333;strokeWidth=0.5;movable=1;resizable=1;rotatable=1;deletable=1;editable=1;locked=0;connectable=1;container=0;" parent="Tk_3Gi3uglissdDTNCGx-218" vertex="1">
          <mxGeometry x="144.44241134751775" y="68.86452830188679" width="55.499645390070924" height="2.0943396226415096" as="geometry" />
        </mxCell>
        <mxCell id="5G7c4jUEA5Og9TPHIXhp-488" value="" style="rounded=0;whiteSpace=wrap;html=1;strokeColor=none;fillColor=#333333;strokeWidth=0.5;movable=1;resizable=1;rotatable=1;deletable=1;editable=1;locked=0;connectable=1;container=0;" parent="Tk_3Gi3uglissdDTNCGx-218" vertex="1">
          <mxGeometry x="19.830000000000002" y="31.830754716981147" width="109.95212765957447" height="26.179245283018872" as="geometry" />
        </mxCell>
        <mxCell id="5G7c4jUEA5Og9TPHIXhp-489" value="" style="rounded=0;whiteSpace=wrap;html=1;strokeColor=#222222;fillColor=#222222;strokeWidth=0.5;movable=1;resizable=1;rotatable=1;deletable=1;editable=1;locked=0;connectable=1;container=0;" parent="Tk_3Gi3uglissdDTNCGx-218" vertex="1">
          <mxGeometry x="22.97148936170213" y="34.9722641509434" width="101.57482269503546" height="19.89622641509434" as="geometry" />
        </mxCell>
        <mxCell id="5G7c4jUEA5Og9TPHIXhp-490" value="" style="rounded=1;whiteSpace=wrap;html=1;strokeColor=#222222;rotation=0;fillColor=#60a917;fontColor=#ffffff;movable=1;resizable=1;rotatable=1;deletable=1;editable=1;locked=0;connectable=1;container=0;direction=south;strokeWidth=0.1;" parent="Tk_3Gi3uglissdDTNCGx-218" vertex="1">
          <mxGeometry x="125.59347517730498" y="52.77415094339622" width="3.141489361702128" height="4.188679245283019" as="geometry" />
        </mxCell>
        <mxCell id="5G7c4jUEA5Og9TPHIXhp-491" value="" style="rounded=1;whiteSpace=wrap;html=1;strokeColor=#222222;rotation=0;fillColor=#0050ef;fontColor=#ffffff;movable=1;resizable=1;rotatable=1;deletable=1;editable=1;locked=0;connectable=1;container=0;direction=south;strokeWidth=0.1;" parent="Tk_3Gi3uglissdDTNCGx-218" vertex="1">
          <mxGeometry x="125.59347517730498" y="43.34962264150943" width="3.141489361702128" height="4.188679245283019" as="geometry" />
        </mxCell>
        <mxCell id="5G7c4jUEA5Og9TPHIXhp-492" value="" style="rounded=1;whiteSpace=wrap;html=1;strokeColor=none;fillColor=#0050ef;strokeWidth=0.5;fontColor=#ffffff;glass=0;movable=1;resizable=1;rotatable=1;deletable=1;editable=1;locked=0;connectable=1;container=0;" parent="Tk_3Gi3uglissdDTNCGx-218" vertex="1">
          <mxGeometry x="98.36723404255319" y="38.11377358490566" width="8.377304964539007" height="13.613207547169813" as="geometry" />
        </mxCell>
        <mxCell id="5G7c4jUEA5Og9TPHIXhp-493" value="" style="shape=or;whiteSpace=wrap;html=1;fillColor=#0050ef;fontColor=#ffffff;strokeColor=none;movable=1;resizable=1;rotatable=1;deletable=1;editable=1;locked=0;connectable=1;container=0;" parent="Tk_3Gi3uglissdDTNCGx-218" vertex="1">
          <mxGeometry x="105.69737588652482" y="38.11377358490566" width="3.141489361702128" height="13.613207547169813" as="geometry" />
        </mxCell>
        <mxCell id="5G7c4jUEA5Og9TPHIXhp-494" value="" style="sketch=0;html=1;strokeColor=#222222;shadow=0;fillColor=none;verticalAlign=top;labelPosition=center;verticalLabelPosition=bottom;shape=mxgraph.gcp2.a7_power;gradientColor=none;strokeWidth=0.1;movable=1;resizable=1;rotatable=1;deletable=1;editable=1;locked=0;connectable=1;container=0;" parent="Tk_3Gi3uglissdDTNCGx-218" vertex="1">
          <mxGeometry x="125.59347517730498" y="39.16094339622643" width="3.141489361702128" height="3.1415094339622645" as="geometry" />
        </mxCell>
        <mxCell id="5G7c4jUEA5Og9TPHIXhp-495" value="" style="strokeWidth=0.1;html=1;shape=mxgraph.flowchart.database;whiteSpace=wrap;strokeColor=#222222;fillColor=none;movable=1;resizable=1;rotatable=1;deletable=1;editable=1;locked=0;connectable=1;container=0;" parent="Tk_3Gi3uglissdDTNCGx-218" vertex="1">
          <mxGeometry x="125.59347517730498" y="48.585471698113224" width="3.141489361702128" height="3.1415094339622645" as="geometry" />
        </mxCell>
        <mxCell id="5G7c4jUEA5Og9TPHIXhp-496" value="" style="rounded=0;whiteSpace=wrap;html=1;strokeColor=none;fillColor=#333333;strokeWidth=0.5;movable=1;resizable=1;rotatable=1;deletable=1;editable=1;locked=0;connectable=1;container=0;" parent="Tk_3Gi3uglissdDTNCGx-218" vertex="1">
          <mxGeometry x="22.97148936170213" y="34.9722641509434" width="80.63156028368795" height="19.89622641509434" as="geometry" />
        </mxCell>
        <mxCell id="5G7c4jUEA5Og9TPHIXhp-497" value="" style="rounded=0;whiteSpace=wrap;html=1;strokeColor=none;fillColor=#2D2D2D;strokeWidth=0.2;movable=1;resizable=1;rotatable=1;deletable=1;editable=1;locked=0;connectable=1;container=0;" parent="Tk_3Gi3uglissdDTNCGx-218" vertex="1">
          <mxGeometry x="88.94276595744681" y="37.5901886792453" width="4.188652482269504" height="14.660377358490567" as="geometry" />
        </mxCell>
        <mxCell id="5G7c4jUEA5Og9TPHIXhp-498" value="" style="rounded=0;whiteSpace=wrap;html=1;strokeColor=none;fillColor=#2D2D2D;strokeWidth=0.2;movable=1;resizable=1;rotatable=1;deletable=1;editable=1;locked=0;connectable=1;container=0;" parent="Tk_3Gi3uglissdDTNCGx-218" vertex="1">
          <mxGeometry x="29.25446808510638" y="37.5901886792453" width="4.188652482269504" height="14.660377358490567" as="geometry" />
        </mxCell>
        <mxCell id="5G7c4jUEA5Og9TPHIXhp-499" value="" style="rounded=0;whiteSpace=wrap;html=1;strokeColor=none;fillColor=#222222;strokeWidth=0.2;movable=1;resizable=1;rotatable=1;deletable=1;editable=1;locked=0;connectable=1;container=0;" parent="Tk_3Gi3uglissdDTNCGx-218" vertex="1">
          <mxGeometry x="33.443120567375885" y="37.5901886792453" width="55.499645390070924" height="2.0943396226415096" as="geometry" />
        </mxCell>
        <mxCell id="5G7c4jUEA5Og9TPHIXhp-500" value="" style="rounded=0;whiteSpace=wrap;html=1;strokeColor=none;fillColor=#222222;strokeWidth=0.2;movable=1;resizable=1;rotatable=1;deletable=1;editable=1;locked=0;connectable=1;container=0;" parent="Tk_3Gi3uglissdDTNCGx-218" vertex="1">
          <mxGeometry x="33.443120567375885" y="41.7788679245283" width="55.499645390070924" height="2.0943396226415096" as="geometry" />
        </mxCell>
        <mxCell id="5G7c4jUEA5Og9TPHIXhp-501" value="" style="rounded=0;whiteSpace=wrap;html=1;strokeColor=none;fillColor=#222222;strokeWidth=0.2;movable=1;resizable=1;rotatable=1;deletable=1;editable=1;locked=0;connectable=1;container=0;" parent="Tk_3Gi3uglissdDTNCGx-218" vertex="1">
          <mxGeometry x="33.443120567375885" y="45.967547169811326" width="55.499645390070924" height="2.0943396226415096" as="geometry" />
        </mxCell>
        <mxCell id="5G7c4jUEA5Og9TPHIXhp-502" value="" style="rounded=0;whiteSpace=wrap;html=1;strokeColor=none;fillColor=#222222;strokeWidth=0.2;movable=1;resizable=1;rotatable=1;deletable=1;editable=1;locked=0;connectable=1;container=0;" parent="Tk_3Gi3uglissdDTNCGx-218" vertex="1">
          <mxGeometry x="33.443120567375885" y="50.15622641509435" width="55.499645390070924" height="2.0943396226415096" as="geometry" />
        </mxCell>
        <mxCell id="5G7c4jUEA5Og9TPHIXhp-503" value="" style="rounded=0;whiteSpace=wrap;html=1;strokeColor=none;fillColor=#2D2D2D;strokeWidth=0.2;movable=1;resizable=1;rotatable=1;deletable=1;editable=1;locked=0;connectable=1;container=0;" parent="Tk_3Gi3uglissdDTNCGx-218" vertex="1">
          <mxGeometry x="50.1977304964539" y="37.5901886792453" width="2.094326241134752" height="14.660377358490567" as="geometry" />
        </mxCell>
        <mxCell id="5G7c4jUEA5Og9TPHIXhp-504" value="" style="rounded=0;whiteSpace=wrap;html=1;strokeColor=none;fillColor=#2D2D2D;strokeWidth=0.2;movable=1;resizable=1;rotatable=1;deletable=1;editable=1;locked=0;connectable=1;container=0;" parent="Tk_3Gi3uglissdDTNCGx-218" vertex="1">
          <mxGeometry x="70.09382978723404" y="37.5901886792453" width="2.094326241134752" height="14.660377358490567" as="geometry" />
        </mxCell>
        <mxCell id="5G7c4jUEA5Og9TPHIXhp-505" value="" style="rounded=0;whiteSpace=wrap;html=1;strokeColor=none;fillColor=#333333;strokeWidth=0.5;movable=1;resizable=1;rotatable=1;deletable=1;editable=1;locked=0;connectable=1;container=0;" parent="Tk_3Gi3uglissdDTNCGx-218" vertex="1">
          <mxGeometry x="33.443120567375885" y="48.06188679245284" width="55.499645390070924" height="2.0943396226415096" as="geometry" />
        </mxCell>
        <mxCell id="5G7c4jUEA5Og9TPHIXhp-506" value="" style="rounded=0;whiteSpace=wrap;html=1;strokeColor=none;fillColor=#333333;strokeWidth=0.5;movable=1;resizable=1;rotatable=1;deletable=1;editable=1;locked=0;connectable=1;container=0;" parent="Tk_3Gi3uglissdDTNCGx-218" vertex="1">
          <mxGeometry x="33.443120567375885" y="43.87320754716981" width="55.499645390070924" height="2.0943396226415096" as="geometry" />
        </mxCell>
        <mxCell id="5G7c4jUEA5Og9TPHIXhp-507" value="" style="rounded=0;whiteSpace=wrap;html=1;strokeColor=none;fillColor=#333333;strokeWidth=0.5;movable=1;resizable=1;rotatable=1;deletable=1;editable=1;locked=0;connectable=1;container=0;" parent="Tk_3Gi3uglissdDTNCGx-218" vertex="1">
          <mxGeometry x="33.443120567375885" y="39.684528301886786" width="55.499645390070924" height="2.0943396226415096" as="geometry" />
        </mxCell>
        <mxCell id="5G7c4jUEA5Og9TPHIXhp-508" value="" style="rounded=0;whiteSpace=wrap;html=1;strokeColor=none;fillColor=#333333;strokeWidth=0.5;movable=1;resizable=1;rotatable=1;deletable=1;editable=1;locked=0;connectable=1;container=0;" parent="Tk_3Gi3uglissdDTNCGx-218" vertex="1">
          <mxGeometry x="130.82929078014183" y="31.830754716981147" width="109.95212765957447" height="26.179245283018872" as="geometry" />
        </mxCell>
        <mxCell id="5G7c4jUEA5Og9TPHIXhp-509" value="" style="rounded=0;whiteSpace=wrap;html=1;strokeColor=#222222;fillColor=#222222;strokeWidth=0.5;movable=1;resizable=1;rotatable=1;deletable=1;editable=1;locked=0;connectable=1;container=0;" parent="Tk_3Gi3uglissdDTNCGx-218" vertex="1">
          <mxGeometry x="133.970780141844" y="34.9722641509434" width="101.57482269503546" height="19.89622641509434" as="geometry" />
        </mxCell>
        <mxCell id="5G7c4jUEA5Og9TPHIXhp-510" value="" style="rounded=1;whiteSpace=wrap;html=1;strokeColor=#222222;rotation=0;fillColor=#60a917;fontColor=#ffffff;movable=1;resizable=1;rotatable=1;deletable=1;editable=1;locked=0;connectable=1;container=0;direction=south;strokeWidth=0.1;" parent="Tk_3Gi3uglissdDTNCGx-218" vertex="1">
          <mxGeometry x="236.59276595744686" y="52.77415094339622" width="3.141489361702128" height="4.188679245283019" as="geometry" />
        </mxCell>
        <mxCell id="5G7c4jUEA5Og9TPHIXhp-511" value="" style="rounded=1;whiteSpace=wrap;html=1;strokeColor=#222222;rotation=0;fillColor=#0050ef;fontColor=#ffffff;movable=1;resizable=1;rotatable=1;deletable=1;editable=1;locked=0;connectable=1;container=0;direction=south;strokeWidth=0.1;" parent="Tk_3Gi3uglissdDTNCGx-218" vertex="1">
          <mxGeometry x="236.59276595744686" y="43.34962264150943" width="3.141489361702128" height="4.188679245283019" as="geometry" />
        </mxCell>
        <mxCell id="5G7c4jUEA5Og9TPHIXhp-512" value="" style="rounded=1;whiteSpace=wrap;html=1;strokeColor=none;fillColor=#0050ef;strokeWidth=0.5;fontColor=#ffffff;glass=0;movable=1;resizable=1;rotatable=1;deletable=1;editable=1;locked=0;connectable=1;container=0;" parent="Tk_3Gi3uglissdDTNCGx-218" vertex="1">
          <mxGeometry x="209.36652482269508" y="38.11377358490566" width="8.377304964539007" height="13.613207547169813" as="geometry" />
        </mxCell>
        <mxCell id="5G7c4jUEA5Og9TPHIXhp-513" value="" style="shape=or;whiteSpace=wrap;html=1;fillColor=#0050ef;fontColor=#ffffff;strokeColor=none;movable=1;resizable=1;rotatable=1;deletable=1;editable=1;locked=0;connectable=1;container=0;" parent="Tk_3Gi3uglissdDTNCGx-218" vertex="1">
          <mxGeometry x="216.6966666666667" y="38.11377358490566" width="3.141489361702128" height="13.613207547169813" as="geometry" />
        </mxCell>
        <mxCell id="5G7c4jUEA5Og9TPHIXhp-514" value="" style="sketch=0;html=1;strokeColor=#222222;shadow=0;fillColor=none;verticalAlign=top;labelPosition=center;verticalLabelPosition=bottom;shape=mxgraph.gcp2.a7_power;gradientColor=none;strokeWidth=0.1;movable=1;resizable=1;rotatable=1;deletable=1;editable=1;locked=0;connectable=1;container=0;" parent="Tk_3Gi3uglissdDTNCGx-218" vertex="1">
          <mxGeometry x="236.59276595744686" y="39.16094339622643" width="3.141489361702128" height="3.1415094339622645" as="geometry" />
        </mxCell>
        <mxCell id="5G7c4jUEA5Og9TPHIXhp-515" value="" style="strokeWidth=0.1;html=1;shape=mxgraph.flowchart.database;whiteSpace=wrap;strokeColor=#222222;fillColor=none;movable=1;resizable=1;rotatable=1;deletable=1;editable=1;locked=0;connectable=1;container=0;" parent="Tk_3Gi3uglissdDTNCGx-218" vertex="1">
          <mxGeometry x="236.59276595744686" y="48.585471698113224" width="3.141489361702128" height="3.1415094339622645" as="geometry" />
        </mxCell>
        <mxCell id="5G7c4jUEA5Og9TPHIXhp-516" value="" style="rounded=0;whiteSpace=wrap;html=1;strokeColor=none;fillColor=#333333;strokeWidth=0.5;movable=1;resizable=1;rotatable=1;deletable=1;editable=1;locked=0;connectable=1;container=0;" parent="Tk_3Gi3uglissdDTNCGx-218" vertex="1">
          <mxGeometry x="133.970780141844" y="34.9722641509434" width="80.63156028368795" height="19.89622641509434" as="geometry" />
        </mxCell>
        <mxCell id="5G7c4jUEA5Og9TPHIXhp-517" value="" style="rounded=0;whiteSpace=wrap;html=1;strokeColor=none;fillColor=#2D2D2D;strokeWidth=0.2;movable=1;resizable=1;rotatable=1;deletable=1;editable=1;locked=0;connectable=1;container=0;" parent="Tk_3Gi3uglissdDTNCGx-218" vertex="1">
          <mxGeometry x="199.94205673758867" y="37.5901886792453" width="4.188652482269504" height="14.660377358490567" as="geometry" />
        </mxCell>
        <mxCell id="5G7c4jUEA5Og9TPHIXhp-518" value="" style="rounded=0;whiteSpace=wrap;html=1;strokeColor=none;fillColor=#2D2D2D;strokeWidth=0.2;movable=1;resizable=1;rotatable=1;deletable=1;editable=1;locked=0;connectable=1;container=0;" parent="Tk_3Gi3uglissdDTNCGx-218" vertex="1">
          <mxGeometry x="140.25375886524824" y="37.5901886792453" width="4.188652482269504" height="14.660377358490567" as="geometry" />
        </mxCell>
        <mxCell id="5G7c4jUEA5Og9TPHIXhp-519" value="" style="rounded=0;whiteSpace=wrap;html=1;strokeColor=none;fillColor=#222222;strokeWidth=0.2;movable=1;resizable=1;rotatable=1;deletable=1;editable=1;locked=0;connectable=1;container=0;" parent="Tk_3Gi3uglissdDTNCGx-218" vertex="1">
          <mxGeometry x="144.44241134751775" y="37.5901886792453" width="55.499645390070924" height="2.0943396226415096" as="geometry" />
        </mxCell>
        <mxCell id="5G7c4jUEA5Og9TPHIXhp-520" value="" style="rounded=0;whiteSpace=wrap;html=1;strokeColor=none;fillColor=#222222;strokeWidth=0.2;movable=1;resizable=1;rotatable=1;deletable=1;editable=1;locked=0;connectable=1;container=0;" parent="Tk_3Gi3uglissdDTNCGx-218" vertex="1">
          <mxGeometry x="144.44241134751775" y="41.7788679245283" width="55.499645390070924" height="2.0943396226415096" as="geometry" />
        </mxCell>
        <mxCell id="5G7c4jUEA5Og9TPHIXhp-521" value="" style="rounded=0;whiteSpace=wrap;html=1;strokeColor=none;fillColor=#222222;strokeWidth=0.2;movable=1;resizable=1;rotatable=1;deletable=1;editable=1;locked=0;connectable=1;container=0;" parent="Tk_3Gi3uglissdDTNCGx-218" vertex="1">
          <mxGeometry x="144.44241134751775" y="45.967547169811326" width="55.499645390070924" height="2.0943396226415096" as="geometry" />
        </mxCell>
        <mxCell id="5G7c4jUEA5Og9TPHIXhp-522" value="" style="rounded=0;whiteSpace=wrap;html=1;strokeColor=none;fillColor=#222222;strokeWidth=0.2;movable=1;resizable=1;rotatable=1;deletable=1;editable=1;locked=0;connectable=1;container=0;" parent="Tk_3Gi3uglissdDTNCGx-218" vertex="1">
          <mxGeometry x="144.44241134751775" y="50.15622641509435" width="55.499645390070924" height="2.0943396226415096" as="geometry" />
        </mxCell>
        <mxCell id="5G7c4jUEA5Og9TPHIXhp-523" value="" style="rounded=0;whiteSpace=wrap;html=1;strokeColor=none;fillColor=#2D2D2D;strokeWidth=0.2;movable=1;resizable=1;rotatable=1;deletable=1;editable=1;locked=0;connectable=1;container=0;" parent="Tk_3Gi3uglissdDTNCGx-218" vertex="1">
          <mxGeometry x="161.1970212765958" y="37.5901886792453" width="2.094326241134752" height="14.660377358490567" as="geometry" />
        </mxCell>
        <mxCell id="5G7c4jUEA5Og9TPHIXhp-524" value="" style="rounded=0;whiteSpace=wrap;html=1;strokeColor=none;fillColor=#2D2D2D;strokeWidth=0.2;movable=1;resizable=1;rotatable=1;deletable=1;editable=1;locked=0;connectable=1;container=0;" parent="Tk_3Gi3uglissdDTNCGx-218" vertex="1">
          <mxGeometry x="181.0931205673759" y="37.5901886792453" width="2.094326241134752" height="14.660377358490567" as="geometry" />
        </mxCell>
        <mxCell id="5G7c4jUEA5Og9TPHIXhp-525" value="" style="rounded=0;whiteSpace=wrap;html=1;strokeColor=none;fillColor=#333333;strokeWidth=0.5;movable=1;resizable=1;rotatable=1;deletable=1;editable=1;locked=0;connectable=1;container=0;" parent="Tk_3Gi3uglissdDTNCGx-218" vertex="1">
          <mxGeometry x="144.44241134751775" y="48.06188679245284" width="55.499645390070924" height="2.0943396226415096" as="geometry" />
        </mxCell>
        <mxCell id="5G7c4jUEA5Og9TPHIXhp-526" value="" style="rounded=0;whiteSpace=wrap;html=1;strokeColor=none;fillColor=#333333;strokeWidth=0.5;movable=1;resizable=1;rotatable=1;deletable=1;editable=1;locked=0;connectable=1;container=0;" parent="Tk_3Gi3uglissdDTNCGx-218" vertex="1">
          <mxGeometry x="144.44241134751775" y="43.87320754716981" width="55.499645390070924" height="2.0943396226415096" as="geometry" />
        </mxCell>
        <mxCell id="5G7c4jUEA5Og9TPHIXhp-527" value="" style="rounded=0;whiteSpace=wrap;html=1;strokeColor=none;fillColor=#333333;strokeWidth=0.5;movable=1;resizable=1;rotatable=1;deletable=1;editable=1;locked=0;connectable=1;container=0;" parent="Tk_3Gi3uglissdDTNCGx-218" vertex="1">
          <mxGeometry x="144.44241134751775" y="39.684528301886786" width="55.499645390070924" height="2.0943396226415096" as="geometry" />
        </mxCell>
        <mxCell id="5G7c4jUEA5Og9TPHIXhp-569" value="" style="rounded=0;whiteSpace=wrap;html=1;strokeColor=none;fillColor=#333333;strokeWidth=0.5;movable=1;resizable=1;rotatable=1;deletable=1;editable=1;locked=0;connectable=1;container=0;" parent="Tk_3Gi3uglissdDTNCGx-218" vertex="1">
          <mxGeometry x="19.83" y="2.6507547169811474" width="109.95212765957447" height="26.179245283018872" as="geometry" />
        </mxCell>
        <mxCell id="5G7c4jUEA5Og9TPHIXhp-570" value="" style="rounded=0;whiteSpace=wrap;html=1;strokeColor=#222222;fillColor=#222222;strokeWidth=0.5;movable=1;resizable=1;rotatable=1;deletable=1;editable=1;locked=0;connectable=1;container=0;" parent="Tk_3Gi3uglissdDTNCGx-218" vertex="1">
          <mxGeometry x="22.971489361702126" y="5.792264150943403" width="101.57482269503546" height="19.89622641509434" as="geometry" />
        </mxCell>
        <mxCell id="5G7c4jUEA5Og9TPHIXhp-571" value="" style="rounded=1;whiteSpace=wrap;html=1;strokeColor=#222222;rotation=0;fillColor=#60a917;fontColor=#ffffff;movable=1;resizable=1;rotatable=1;deletable=1;editable=1;locked=0;connectable=1;container=0;direction=south;strokeWidth=0.1;" parent="Tk_3Gi3uglissdDTNCGx-218" vertex="1">
          <mxGeometry x="125.59347517730498" y="23.594150943396215" width="3.141489361702128" height="4.188679245283019" as="geometry" />
        </mxCell>
        <mxCell id="5G7c4jUEA5Og9TPHIXhp-572" value="" style="rounded=1;whiteSpace=wrap;html=1;strokeColor=#222222;rotation=0;fillColor=#0050ef;fontColor=#ffffff;movable=1;resizable=1;rotatable=1;deletable=1;editable=1;locked=0;connectable=1;container=0;direction=south;strokeWidth=0.1;" parent="Tk_3Gi3uglissdDTNCGx-218" vertex="1">
          <mxGeometry x="125.59347517730498" y="14.16962264150942" width="3.141489361702128" height="4.188679245283019" as="geometry" />
        </mxCell>
        <mxCell id="5G7c4jUEA5Og9TPHIXhp-573" value="" style="rounded=1;whiteSpace=wrap;html=1;strokeColor=none;fillColor=#0050ef;strokeWidth=0.5;fontColor=#ffffff;glass=0;movable=1;resizable=1;rotatable=1;deletable=1;editable=1;locked=0;connectable=1;container=0;" parent="Tk_3Gi3uglissdDTNCGx-218" vertex="1">
          <mxGeometry x="98.36723404255319" y="8.933773584905651" width="8.377304964539007" height="13.613207547169813" as="geometry" />
        </mxCell>
        <mxCell id="5G7c4jUEA5Og9TPHIXhp-574" value="" style="shape=or;whiteSpace=wrap;html=1;fillColor=#0050ef;fontColor=#ffffff;strokeColor=none;movable=1;resizable=1;rotatable=1;deletable=1;editable=1;locked=0;connectable=1;container=0;" parent="Tk_3Gi3uglissdDTNCGx-218" vertex="1">
          <mxGeometry x="105.69737588652482" y="8.933773584905651" width="3.141489361702128" height="13.613207547169813" as="geometry" />
        </mxCell>
        <mxCell id="5G7c4jUEA5Og9TPHIXhp-575" value="" style="sketch=0;html=1;strokeColor=#222222;shadow=0;fillColor=none;verticalAlign=top;labelPosition=center;verticalLabelPosition=bottom;shape=mxgraph.gcp2.a7_power;gradientColor=none;strokeWidth=0.1;movable=1;resizable=1;rotatable=1;deletable=1;editable=1;locked=0;connectable=1;container=0;" parent="Tk_3Gi3uglissdDTNCGx-218" vertex="1">
          <mxGeometry x="125.59347517730498" y="9.980943396226422" width="3.141489361702128" height="3.1415094339622645" as="geometry" />
        </mxCell>
        <mxCell id="5G7c4jUEA5Og9TPHIXhp-576" value="" style="strokeWidth=0.1;html=1;shape=mxgraph.flowchart.database;whiteSpace=wrap;strokeColor=#222222;fillColor=none;movable=1;resizable=1;rotatable=1;deletable=1;editable=1;locked=0;connectable=1;container=0;" parent="Tk_3Gi3uglissdDTNCGx-218" vertex="1">
          <mxGeometry x="125.59347517730498" y="19.405471698113217" width="3.141489361702128" height="3.1415094339622645" as="geometry" />
        </mxCell>
        <mxCell id="5G7c4jUEA5Og9TPHIXhp-577" value="" style="rounded=0;whiteSpace=wrap;html=1;strokeColor=none;fillColor=#333333;strokeWidth=0.5;movable=1;resizable=1;rotatable=1;deletable=1;editable=1;locked=0;connectable=1;container=0;" parent="Tk_3Gi3uglissdDTNCGx-218" vertex="1">
          <mxGeometry x="22.971489361702126" y="5.792264150943403" width="80.63156028368795" height="19.89622641509434" as="geometry" />
        </mxCell>
        <mxCell id="5G7c4jUEA5Og9TPHIXhp-578" value="" style="rounded=0;whiteSpace=wrap;html=1;strokeColor=none;fillColor=#2D2D2D;strokeWidth=0.2;movable=1;resizable=1;rotatable=1;deletable=1;editable=1;locked=0;connectable=1;container=0;" parent="Tk_3Gi3uglissdDTNCGx-218" vertex="1">
          <mxGeometry x="88.94276595744681" y="8.410188679245294" width="4.188652482269504" height="14.660377358490567" as="geometry" />
        </mxCell>
        <mxCell id="5G7c4jUEA5Og9TPHIXhp-579" value="" style="rounded=0;whiteSpace=wrap;html=1;strokeColor=none;fillColor=#2D2D2D;strokeWidth=0.2;movable=1;resizable=1;rotatable=1;deletable=1;editable=1;locked=0;connectable=1;container=0;" parent="Tk_3Gi3uglissdDTNCGx-218" vertex="1">
          <mxGeometry x="29.25446808510638" y="8.410188679245294" width="4.188652482269504" height="14.660377358490567" as="geometry" />
        </mxCell>
        <mxCell id="5G7c4jUEA5Og9TPHIXhp-580" value="" style="rounded=0;whiteSpace=wrap;html=1;strokeColor=none;fillColor=#222222;strokeWidth=0.2;movable=1;resizable=1;rotatable=1;deletable=1;editable=1;locked=0;connectable=1;container=0;" parent="Tk_3Gi3uglissdDTNCGx-218" vertex="1">
          <mxGeometry x="33.443120567375885" y="8.410188679245294" width="55.499645390070924" height="2.0943396226415096" as="geometry" />
        </mxCell>
        <mxCell id="5G7c4jUEA5Og9TPHIXhp-581" value="" style="rounded=0;whiteSpace=wrap;html=1;strokeColor=none;fillColor=#222222;strokeWidth=0.2;movable=1;resizable=1;rotatable=1;deletable=1;editable=1;locked=0;connectable=1;container=0;" parent="Tk_3Gi3uglissdDTNCGx-218" vertex="1">
          <mxGeometry x="33.443120567375885" y="12.598867924528292" width="55.499645390070924" height="2.0943396226415096" as="geometry" />
        </mxCell>
        <mxCell id="5G7c4jUEA5Og9TPHIXhp-582" value="" style="rounded=0;whiteSpace=wrap;html=1;strokeColor=none;fillColor=#222222;strokeWidth=0.2;movable=1;resizable=1;rotatable=1;deletable=1;editable=1;locked=0;connectable=1;container=0;" parent="Tk_3Gi3uglissdDTNCGx-218" vertex="1">
          <mxGeometry x="33.443120567375885" y="16.78754716981132" width="55.499645390070924" height="2.0943396226415096" as="geometry" />
        </mxCell>
        <mxCell id="5G7c4jUEA5Og9TPHIXhp-583" value="" style="rounded=0;whiteSpace=wrap;html=1;strokeColor=none;fillColor=#222222;strokeWidth=0.2;movable=1;resizable=1;rotatable=1;deletable=1;editable=1;locked=0;connectable=1;container=0;" parent="Tk_3Gi3uglissdDTNCGx-218" vertex="1">
          <mxGeometry x="33.443120567375885" y="20.976226415094345" width="55.499645390070924" height="2.0943396226415096" as="geometry" />
        </mxCell>
        <mxCell id="5G7c4jUEA5Og9TPHIXhp-584" value="" style="rounded=0;whiteSpace=wrap;html=1;strokeColor=none;fillColor=#2D2D2D;strokeWidth=0.2;movable=1;resizable=1;rotatable=1;deletable=1;editable=1;locked=0;connectable=1;container=0;" parent="Tk_3Gi3uglissdDTNCGx-218" vertex="1">
          <mxGeometry x="50.1977304964539" y="8.410188679245294" width="2.094326241134752" height="14.660377358490567" as="geometry" />
        </mxCell>
        <mxCell id="5G7c4jUEA5Og9TPHIXhp-585" value="" style="rounded=0;whiteSpace=wrap;html=1;strokeColor=none;fillColor=#2D2D2D;strokeWidth=0.2;movable=1;resizable=1;rotatable=1;deletable=1;editable=1;locked=0;connectable=1;container=0;" parent="Tk_3Gi3uglissdDTNCGx-218" vertex="1">
          <mxGeometry x="70.09382978723404" y="8.410188679245294" width="2.094326241134752" height="14.660377358490567" as="geometry" />
        </mxCell>
        <mxCell id="5G7c4jUEA5Og9TPHIXhp-586" value="" style="rounded=0;whiteSpace=wrap;html=1;strokeColor=none;fillColor=#333333;strokeWidth=0.5;movable=1;resizable=1;rotatable=1;deletable=1;editable=1;locked=0;connectable=1;container=0;" parent="Tk_3Gi3uglissdDTNCGx-218" vertex="1">
          <mxGeometry x="33.443120567375885" y="18.881886792452832" width="55.499645390070924" height="2.0943396226415096" as="geometry" />
        </mxCell>
        <mxCell id="5G7c4jUEA5Og9TPHIXhp-587" value="" style="rounded=0;whiteSpace=wrap;html=1;strokeColor=none;fillColor=#333333;strokeWidth=0.5;movable=1;resizable=1;rotatable=1;deletable=1;editable=1;locked=0;connectable=1;container=0;" parent="Tk_3Gi3uglissdDTNCGx-218" vertex="1">
          <mxGeometry x="33.443120567375885" y="14.693207547169806" width="55.499645390070924" height="2.0943396226415096" as="geometry" />
        </mxCell>
        <mxCell id="5G7c4jUEA5Og9TPHIXhp-588" value="" style="rounded=0;whiteSpace=wrap;html=1;strokeColor=none;fillColor=#333333;strokeWidth=0.5;movable=1;resizable=1;rotatable=1;deletable=1;editable=1;locked=0;connectable=1;container=0;" parent="Tk_3Gi3uglissdDTNCGx-218" vertex="1">
          <mxGeometry x="33.443120567375885" y="10.50452830188678" width="55.499645390070924" height="2.0943396226415096" as="geometry" />
        </mxCell>
        <mxCell id="5G7c4jUEA5Og9TPHIXhp-589" value="" style="rounded=0;whiteSpace=wrap;html=1;strokeColor=none;fillColor=#333333;strokeWidth=0.5;movable=1;resizable=1;rotatable=1;deletable=1;editable=1;locked=0;connectable=1;container=0;" parent="Tk_3Gi3uglissdDTNCGx-218" vertex="1">
          <mxGeometry x="130.82929078014183" y="2.6507547169811474" width="109.95212765957447" height="26.179245283018872" as="geometry" />
        </mxCell>
        <mxCell id="5G7c4jUEA5Og9TPHIXhp-590" value="" style="rounded=0;whiteSpace=wrap;html=1;strokeColor=#222222;fillColor=#222222;strokeWidth=0.5;movable=1;resizable=1;rotatable=1;deletable=1;editable=1;locked=0;connectable=1;container=0;" parent="Tk_3Gi3uglissdDTNCGx-218" vertex="1">
          <mxGeometry x="133.970780141844" y="5.792264150943403" width="101.57482269503546" height="19.89622641509434" as="geometry" />
        </mxCell>
        <mxCell id="5G7c4jUEA5Og9TPHIXhp-591" value="" style="rounded=1;whiteSpace=wrap;html=1;strokeColor=#222222;rotation=0;fillColor=#60a917;fontColor=#ffffff;movable=1;resizable=1;rotatable=1;deletable=1;editable=1;locked=0;connectable=1;container=0;direction=south;strokeWidth=0.1;" parent="Tk_3Gi3uglissdDTNCGx-218" vertex="1">
          <mxGeometry x="236.59276595744683" y="23.594150943396215" width="3.141489361702128" height="4.188679245283019" as="geometry" />
        </mxCell>
        <mxCell id="5G7c4jUEA5Og9TPHIXhp-592" value="" style="rounded=1;whiteSpace=wrap;html=1;strokeColor=#222222;rotation=0;fillColor=#0050ef;fontColor=#ffffff;movable=1;resizable=1;rotatable=1;deletable=1;editable=1;locked=0;connectable=1;container=0;direction=south;strokeWidth=0.1;" parent="Tk_3Gi3uglissdDTNCGx-218" vertex="1">
          <mxGeometry x="236.59276595744683" y="14.16962264150942" width="3.141489361702128" height="4.188679245283019" as="geometry" />
        </mxCell>
        <mxCell id="5G7c4jUEA5Og9TPHIXhp-593" value="" style="rounded=1;whiteSpace=wrap;html=1;strokeColor=none;fillColor=#0050ef;strokeWidth=0.5;fontColor=#ffffff;glass=0;movable=1;resizable=1;rotatable=1;deletable=1;editable=1;locked=0;connectable=1;container=0;" parent="Tk_3Gi3uglissdDTNCGx-218" vertex="1">
          <mxGeometry x="209.36652482269506" y="8.933773584905651" width="8.377304964539007" height="13.613207547169813" as="geometry" />
        </mxCell>
        <mxCell id="5G7c4jUEA5Og9TPHIXhp-594" value="" style="shape=or;whiteSpace=wrap;html=1;fillColor=#0050ef;fontColor=#ffffff;strokeColor=none;movable=1;resizable=1;rotatable=1;deletable=1;editable=1;locked=0;connectable=1;container=0;" parent="Tk_3Gi3uglissdDTNCGx-218" vertex="1">
          <mxGeometry x="216.69666666666666" y="8.933773584905651" width="3.141489361702128" height="13.613207547169813" as="geometry" />
        </mxCell>
        <mxCell id="5G7c4jUEA5Og9TPHIXhp-595" value="" style="sketch=0;html=1;strokeColor=#222222;shadow=0;fillColor=none;verticalAlign=top;labelPosition=center;verticalLabelPosition=bottom;shape=mxgraph.gcp2.a7_power;gradientColor=none;strokeWidth=0.1;movable=1;resizable=1;rotatable=1;deletable=1;editable=1;locked=0;connectable=1;container=0;" parent="Tk_3Gi3uglissdDTNCGx-218" vertex="1">
          <mxGeometry x="236.59276595744683" y="9.980943396226422" width="3.141489361702128" height="3.1415094339622645" as="geometry" />
        </mxCell>
        <mxCell id="5G7c4jUEA5Og9TPHIXhp-596" value="" style="strokeWidth=0.1;html=1;shape=mxgraph.flowchart.database;whiteSpace=wrap;strokeColor=#222222;fillColor=none;movable=1;resizable=1;rotatable=1;deletable=1;editable=1;locked=0;connectable=1;container=0;" parent="Tk_3Gi3uglissdDTNCGx-218" vertex="1">
          <mxGeometry x="236.59276595744683" y="19.405471698113217" width="3.141489361702128" height="3.1415094339622645" as="geometry" />
        </mxCell>
        <mxCell id="5G7c4jUEA5Og9TPHIXhp-597" value="" style="rounded=0;whiteSpace=wrap;html=1;strokeColor=none;fillColor=#333333;strokeWidth=0.5;movable=1;resizable=1;rotatable=1;deletable=1;editable=1;locked=0;connectable=1;container=0;" parent="Tk_3Gi3uglissdDTNCGx-218" vertex="1">
          <mxGeometry x="133.970780141844" y="5.792264150943403" width="80.63156028368795" height="19.89622641509434" as="geometry" />
        </mxCell>
        <mxCell id="5G7c4jUEA5Og9TPHIXhp-598" value="" style="rounded=0;whiteSpace=wrap;html=1;strokeColor=none;fillColor=#2D2D2D;strokeWidth=0.2;movable=1;resizable=1;rotatable=1;deletable=1;editable=1;locked=0;connectable=1;container=0;" parent="Tk_3Gi3uglissdDTNCGx-218" vertex="1">
          <mxGeometry x="199.94205673758864" y="8.410188679245294" width="4.188652482269504" height="14.660377358490567" as="geometry" />
        </mxCell>
        <mxCell id="5G7c4jUEA5Og9TPHIXhp-599" value="" style="rounded=0;whiteSpace=wrap;html=1;strokeColor=none;fillColor=#2D2D2D;strokeWidth=0.2;movable=1;resizable=1;rotatable=1;deletable=1;editable=1;locked=0;connectable=1;container=0;" parent="Tk_3Gi3uglissdDTNCGx-218" vertex="1">
          <mxGeometry x="140.25375886524824" y="8.410188679245294" width="4.188652482269504" height="14.660377358490567" as="geometry" />
        </mxCell>
        <mxCell id="5G7c4jUEA5Og9TPHIXhp-600" value="" style="rounded=0;whiteSpace=wrap;html=1;strokeColor=none;fillColor=#222222;strokeWidth=0.2;movable=1;resizable=1;rotatable=1;deletable=1;editable=1;locked=0;connectable=1;container=0;" parent="Tk_3Gi3uglissdDTNCGx-218" vertex="1">
          <mxGeometry x="144.44241134751775" y="8.410188679245294" width="55.499645390070924" height="2.0943396226415096" as="geometry" />
        </mxCell>
        <mxCell id="5G7c4jUEA5Og9TPHIXhp-601" value="" style="rounded=0;whiteSpace=wrap;html=1;strokeColor=none;fillColor=#222222;strokeWidth=0.2;movable=1;resizable=1;rotatable=1;deletable=1;editable=1;locked=0;connectable=1;container=0;" parent="Tk_3Gi3uglissdDTNCGx-218" vertex="1">
          <mxGeometry x="144.44241134751775" y="12.598867924528292" width="55.499645390070924" height="2.0943396226415096" as="geometry" />
        </mxCell>
        <mxCell id="5G7c4jUEA5Og9TPHIXhp-602" value="" style="rounded=0;whiteSpace=wrap;html=1;strokeColor=none;fillColor=#222222;strokeWidth=0.2;movable=1;resizable=1;rotatable=1;deletable=1;editable=1;locked=0;connectable=1;container=0;" parent="Tk_3Gi3uglissdDTNCGx-218" vertex="1">
          <mxGeometry x="144.44241134751775" y="16.78754716981132" width="55.499645390070924" height="2.0943396226415096" as="geometry" />
        </mxCell>
        <mxCell id="5G7c4jUEA5Og9TPHIXhp-603" value="" style="rounded=0;whiteSpace=wrap;html=1;strokeColor=none;fillColor=#222222;strokeWidth=0.2;movable=1;resizable=1;rotatable=1;deletable=1;editable=1;locked=0;connectable=1;container=0;" parent="Tk_3Gi3uglissdDTNCGx-218" vertex="1">
          <mxGeometry x="144.44241134751775" y="20.976226415094345" width="55.499645390070924" height="2.0943396226415096" as="geometry" />
        </mxCell>
        <mxCell id="5G7c4jUEA5Og9TPHIXhp-604" value="" style="rounded=0;whiteSpace=wrap;html=1;strokeColor=none;fillColor=#2D2D2D;strokeWidth=0.2;movable=1;resizable=1;rotatable=1;deletable=1;editable=1;locked=0;connectable=1;container=0;" parent="Tk_3Gi3uglissdDTNCGx-218" vertex="1">
          <mxGeometry x="161.19702127659576" y="8.410188679245294" width="2.094326241134752" height="14.660377358490567" as="geometry" />
        </mxCell>
        <mxCell id="5G7c4jUEA5Og9TPHIXhp-605" value="" style="rounded=0;whiteSpace=wrap;html=1;strokeColor=none;fillColor=#2D2D2D;strokeWidth=0.2;movable=1;resizable=1;rotatable=1;deletable=1;editable=1;locked=0;connectable=1;container=0;" parent="Tk_3Gi3uglissdDTNCGx-218" vertex="1">
          <mxGeometry x="181.09312056737588" y="8.410188679245294" width="2.094326241134752" height="14.660377358490567" as="geometry" />
        </mxCell>
        <mxCell id="5G7c4jUEA5Og9TPHIXhp-606" value="" style="rounded=0;whiteSpace=wrap;html=1;strokeColor=none;fillColor=#333333;strokeWidth=0.5;movable=1;resizable=1;rotatable=1;deletable=1;editable=1;locked=0;connectable=1;container=0;" parent="Tk_3Gi3uglissdDTNCGx-218" vertex="1">
          <mxGeometry x="144.44241134751775" y="18.881886792452832" width="55.499645390070924" height="2.0943396226415096" as="geometry" />
        </mxCell>
        <mxCell id="5G7c4jUEA5Og9TPHIXhp-607" value="" style="rounded=0;whiteSpace=wrap;html=1;strokeColor=none;fillColor=#333333;strokeWidth=0.5;movable=1;resizable=1;rotatable=1;deletable=1;editable=1;locked=0;connectable=1;container=0;" parent="Tk_3Gi3uglissdDTNCGx-218" vertex="1">
          <mxGeometry x="144.44241134751775" y="14.693207547169806" width="55.499645390070924" height="2.0943396226415096" as="geometry" />
        </mxCell>
        <mxCell id="5G7c4jUEA5Og9TPHIXhp-608" value="" style="rounded=0;whiteSpace=wrap;html=1;strokeColor=none;fillColor=#333333;strokeWidth=0.5;movable=1;resizable=1;rotatable=1;deletable=1;editable=1;locked=0;connectable=1;container=0;" parent="Tk_3Gi3uglissdDTNCGx-218" vertex="1">
          <mxGeometry x="144.44241134751775" y="10.50452830188678" width="55.499645390070924" height="2.0943396226415096" as="geometry" />
        </mxCell>
        <mxCell id="Tk_3Gi3uglissdDTNCGx-46" value="" style="rounded=0;whiteSpace=wrap;html=1;strokeColor=#aaaaaa;fillColor=#222222;strokeWidth=1;movable=1;resizable=1;rotatable=1;deletable=1;editable=1;locked=0;connectable=1;container=0;" vertex="1" parent="Tk_3Gi3uglissdDTNCGx-218">
          <mxGeometry x="243" width="221.6" height="88.9" as="geometry" />
        </mxCell>
        <mxCell id="Tk_3Gi3uglissdDTNCGx-1" value="" style="group;strokeColor=#000000;" vertex="1" connectable="0" parent="Tk_3Gi3uglissdDTNCGx-218">
          <mxGeometry x="311.8" y="8.260000000000005" width="84" height="16" as="geometry" />
        </mxCell>
        <mxCell id="Tk_3Gi3uglissdDTNCGx-2" value="" style="rounded=0;whiteSpace=wrap;html=1;strokeColor=#000000;fillColor=#333333;strokeWidth=0.2;container=0;movable=1;resizable=1;rotatable=1;deletable=1;editable=1;locked=0;connectable=1;" vertex="1" parent="Tk_3Gi3uglissdDTNCGx-1">
          <mxGeometry width="84" height="16" as="geometry" />
        </mxCell>
        <mxCell id="Tk_3Gi3uglissdDTNCGx-3" value="" style="rounded=0;whiteSpace=wrap;html=1;strokeColor=#001DBC;fillColor=#333333;strokeWidth=0.2;container=0;fontColor=#ffffff;movable=1;resizable=1;rotatable=1;deletable=1;editable=1;locked=0;connectable=1;" vertex="1" parent="Tk_3Gi3uglissdDTNCGx-1">
          <mxGeometry x="1.5" y="1.3473913043478092" width="81" height="13.304347826086957" as="geometry" />
        </mxCell>
        <mxCell id="Tk_3Gi3uglissdDTNCGx-4" value="" style="ellipse;whiteSpace=wrap;html=1;strokeColor=none;fillColor=#60a917;fontColor=#ffffff;movable=1;resizable=1;rotatable=1;deletable=1;editable=1;locked=0;connectable=1;container=0;" vertex="1" parent="Tk_3Gi3uglissdDTNCGx-1">
          <mxGeometry x="18" y="8.738695652173902" width="4.5" height="4.434782608695652" as="geometry" />
        </mxCell>
        <mxCell id="Tk_3Gi3uglissdDTNCGx-5" value="" style="ellipse;whiteSpace=wrap;html=1;strokeColor=none;fillColor=#0050ef;fontColor=#ffffff;movable=1;resizable=1;rotatable=1;deletable=1;editable=1;locked=0;connectable=1;container=0;" vertex="1" parent="Tk_3Gi3uglissdDTNCGx-1">
          <mxGeometry x="23.24999999999997" y="8.738695652173902" width="4.5" height="4.434782608695652" as="geometry" />
        </mxCell>
        <mxCell id="Tk_3Gi3uglissdDTNCGx-6" value="" style="ellipse;whiteSpace=wrap;html=1;strokeColor=none;fillColor=#0050ef;fontColor=#ffffff;movable=1;resizable=1;rotatable=1;deletable=1;editable=1;locked=0;connectable=1;container=0;" vertex="1" parent="Tk_3Gi3uglissdDTNCGx-1">
          <mxGeometry x="28.49999999999997" y="8.738695652173902" width="4.5" height="4.434782608695652" as="geometry" />
        </mxCell>
        <mxCell id="Tk_3Gi3uglissdDTNCGx-7" value="" style="ellipse;whiteSpace=wrap;html=1;strokeColor=none;fillColor=#0050ef;fontColor=#ffffff;movable=1;resizable=1;rotatable=1;deletable=1;editable=1;locked=0;connectable=1;container=0;" vertex="1" parent="Tk_3Gi3uglissdDTNCGx-1">
          <mxGeometry x="33.75" y="8.738695652173902" width="4.5" height="4.434782608695652" as="geometry" />
        </mxCell>
        <mxCell id="Tk_3Gi3uglissdDTNCGx-8" value="" style="ellipse;whiteSpace=wrap;html=1;strokeColor=none;fillColor=#a20025;fontColor=#ffffff;movable=1;resizable=1;rotatable=1;deletable=1;editable=1;locked=0;connectable=1;container=0;" vertex="1" parent="Tk_3Gi3uglissdDTNCGx-1">
          <mxGeometry x="44.25" y="8.738695652173902" width="4.5" height="4.434782608695652" as="geometry" />
        </mxCell>
        <mxCell id="Tk_3Gi3uglissdDTNCGx-9" value="" style="ellipse;whiteSpace=wrap;html=1;strokeColor=none;fillColor=#0050ef;fontColor=#ffffff;movable=1;resizable=1;rotatable=1;deletable=1;editable=1;locked=0;connectable=1;container=0;" vertex="1" parent="Tk_3Gi3uglissdDTNCGx-1">
          <mxGeometry x="39" y="8.738695652173902" width="4.5" height="4.434782608695652" as="geometry" />
        </mxCell>
        <mxCell id="Tk_3Gi3uglissdDTNCGx-10" value="" style="ellipse;whiteSpace=wrap;html=1;strokeColor=none;fillColor=#0050ef;fontColor=#ffffff;movable=1;resizable=1;rotatable=1;deletable=1;editable=1;locked=0;connectable=1;container=0;" vertex="1" parent="Tk_3Gi3uglissdDTNCGx-1">
          <mxGeometry x="10.5" y="7.260434782608684" width="6" height="5.913043478260869" as="geometry" />
        </mxCell>
        <mxCell id="Tk_3Gi3uglissdDTNCGx-11" value="" style="ellipse;whiteSpace=wrap;html=1;strokeColor=none;fillColor=#0050ef;fontColor=#ffffff;movable=1;resizable=1;rotatable=1;deletable=1;editable=1;locked=0;connectable=1;container=0;" vertex="1" parent="Tk_3Gi3uglissdDTNCGx-1">
          <mxGeometry x="2.9999999999999716" y="7.260434782608684" width="6" height="5.913043478260869" as="geometry" />
        </mxCell>
        <mxCell id="Tk_3Gi3uglissdDTNCGx-12" value="" style="sketch=0;pointerEvents=1;shadow=0;dashed=0;html=1;strokeColor=none;labelPosition=center;verticalLabelPosition=bottom;verticalAlign=top;align=center;fillColor=#FFFFFF;shape=mxgraph.mscae.enterprise.usb;movable=1;resizable=1;rotatable=1;deletable=1;editable=1;locked=0;connectable=1;container=0;" vertex="1" parent="Tk_3Gi3uglissdDTNCGx-1">
          <mxGeometry x="54.29999999999973" y="2.825652173913028" width="6.51" height="2.9565217391304346" as="geometry" />
        </mxCell>
        <mxCell id="Tk_3Gi3uglissdDTNCGx-13" value="" style="sketch=0;pointerEvents=1;shadow=0;dashed=0;html=1;strokeColor=none;labelPosition=center;verticalLabelPosition=bottom;verticalAlign=top;align=center;fillColor=#FFFFFF;shape=mxgraph.mscae.enterprise.usb;movable=1;resizable=1;rotatable=1;deletable=1;editable=1;locked=0;connectable=1;container=0;" vertex="1" parent="Tk_3Gi3uglissdDTNCGx-1">
          <mxGeometry x="70.25999999999948" y="2.825652173913028" width="6.51" height="2.9565217391304346" as="geometry" />
        </mxCell>
        <mxCell id="Tk_3Gi3uglissdDTNCGx-14" value="" style="sketch=0;html=1;strokeColor=none;shadow=0;fillColor=#FFFFFF;verticalAlign=top;labelPosition=center;verticalLabelPosition=bottom;shape=mxgraph.gcp2.a7_power;gradientColor=none;movable=1;resizable=1;rotatable=1;deletable=1;editable=1;locked=0;connectable=1;container=0;" vertex="1" parent="Tk_3Gi3uglissdDTNCGx-1">
          <mxGeometry x="4.5" y="2.825652173913028" width="3" height="2.9565217391304346" as="geometry" />
        </mxCell>
        <mxCell id="Tk_3Gi3uglissdDTNCGx-15" value="" style="verticalLabelPosition=bottom;shadow=0;dashed=0;align=center;html=1;verticalAlign=top;shape=mxgraph.electrical.radio.loop_antenna;strokeColor=default;fillColor=none;strokeWidth=0.1;rotation=-180;movable=1;resizable=1;rotatable=1;deletable=1;editable=1;locked=0;connectable=1;container=0;" vertex="1" parent="Tk_3Gi3uglissdDTNCGx-1">
          <mxGeometry x="12.000000000000682" y="2.825652173913028" width="3" height="2.9565217391304346" as="geometry" />
        </mxCell>
        <mxCell id="Tk_3Gi3uglissdDTNCGx-16" value="" style="strokeWidth=0.1;html=1;shape=mxgraph.flowchart.database;whiteSpace=wrap;strokeColor=default;fillColor=none;movable=1;resizable=1;rotatable=1;deletable=1;editable=1;locked=0;connectable=1;container=0;" vertex="1" parent="Tk_3Gi3uglissdDTNCGx-1">
          <mxGeometry x="24" y="2.825652173913028" width="3" height="2.9565217391304346" as="geometry" />
        </mxCell>
        <mxCell id="Tk_3Gi3uglissdDTNCGx-17" value="" style="sketch=0;pointerEvents=1;shadow=0;dashed=0;html=1;strokeColor=none;fillColor=#FFFFFF;labelPosition=center;verticalLabelPosition=bottom;verticalAlign=top;align=center;outlineConnect=0;shape=mxgraph.vvd.infrastructure;movable=1;resizable=1;rotatable=1;deletable=1;editable=1;locked=0;connectable=1;container=0;" vertex="1" parent="Tk_3Gi3uglissdDTNCGx-1">
          <mxGeometry x="29.24999999999997" y="2.825652173913028" width="3" height="2.9565217391304346" as="geometry" />
        </mxCell>
        <mxCell id="Tk_3Gi3uglissdDTNCGx-18" value="" style="sketch=0;pointerEvents=1;shadow=0;dashed=0;html=1;strokeColor=none;fillColor=#FFFFFF;labelPosition=center;verticalLabelPosition=bottom;verticalAlign=top;align=center;outlineConnect=0;shape=mxgraph.vvd.infrastructure;movable=1;resizable=1;rotatable=1;deletable=1;editable=1;locked=0;connectable=1;container=0;" vertex="1" parent="Tk_3Gi3uglissdDTNCGx-1">
          <mxGeometry x="34.49999999999997" y="2.825652173913028" width="3" height="2.9565217391304346" as="geometry" />
        </mxCell>
        <mxCell id="Tk_3Gi3uglissdDTNCGx-19" value="" style="sketch=0;pointerEvents=1;shadow=0;dashed=0;html=1;strokeColor=none;fillColor=#FFFFFF;labelPosition=center;verticalLabelPosition=bottom;verticalAlign=top;align=center;outlineConnect=0;shape=mxgraph.vvd.infrastructure;movable=1;resizable=1;rotatable=1;deletable=1;editable=1;locked=0;connectable=1;container=0;" vertex="1" parent="Tk_3Gi3uglissdDTNCGx-1">
          <mxGeometry x="39.75" y="2.825652173913028" width="3" height="2.9565217391304346" as="geometry" />
        </mxCell>
        <mxCell id="Tk_3Gi3uglissdDTNCGx-20" value="" style="triangle;whiteSpace=wrap;html=1;rotation=-90;fillColor=none;strokeWidth=0.1;movable=1;resizable=1;rotatable=1;deletable=1;editable=1;locked=0;connectable=1;container=0;" vertex="1" parent="Tk_3Gi3uglissdDTNCGx-1">
          <mxGeometry x="45" y="2.825652173913028" width="3" height="2.9565217391304346" as="geometry" />
        </mxCell>
        <mxCell id="Tk_3Gi3uglissdDTNCGx-21" value="" style="sketch=0;html=1;strokeColor=default;shadow=0;fillColor=none;verticalAlign=top;labelPosition=center;verticalLabelPosition=bottom;shape=mxgraph.gcp2.a7_power;gradientColor=none;strokeWidth=0.1;movable=1;resizable=1;rotatable=1;deletable=1;editable=1;locked=0;connectable=1;container=0;" vertex="1" parent="Tk_3Gi3uglissdDTNCGx-1">
          <mxGeometry x="18.75" y="2.825652173913028" width="3" height="2.9565217391304346" as="geometry" />
        </mxCell>
        <mxCell id="Tk_3Gi3uglissdDTNCGx-22" value="" style="rounded=0;whiteSpace=wrap;html=1;strokeColor=#aaaaaa;fillColor=#222222;strokeWidth=0.1;movable=1;resizable=1;rotatable=1;deletable=1;editable=1;locked=0;connectable=1;container=0;" vertex="1" parent="Tk_3Gi3uglissdDTNCGx-1">
          <mxGeometry x="66" y="7.260434782608684" width="14.999999999999998" height="5.913043478260869" as="geometry" />
        </mxCell>
        <mxCell id="Tk_3Gi3uglissdDTNCGx-23" value="" style="rounded=0;whiteSpace=wrap;html=1;strokeColor=none;fillColor=#0050ef;strokeWidth=0.5;fontColor=#ffffff;movable=1;resizable=1;rotatable=1;deletable=1;editable=1;locked=0;connectable=1;container=0;" vertex="1" parent="Tk_3Gi3uglissdDTNCGx-1">
          <mxGeometry x="67.49999999999994" y="8.738695652173902" width="12" height="1.4782608695652173" as="geometry" />
        </mxCell>
        <mxCell id="Tk_3Gi3uglissdDTNCGx-24" value="" style="rounded=0;whiteSpace=wrap;html=1;strokeColor=#aaaaaa;fillColor=#222222;strokeWidth=0.1;movable=1;resizable=1;rotatable=1;deletable=1;editable=1;locked=0;connectable=1;container=0;" vertex="1" parent="Tk_3Gi3uglissdDTNCGx-1">
          <mxGeometry x="50.04000000000019" y="7.260434782608684" width="14.999999999999998" height="5.913043478260869" as="geometry" />
        </mxCell>
        <mxCell id="Tk_3Gi3uglissdDTNCGx-25" value="" style="rounded=0;whiteSpace=wrap;html=1;strokeColor=none;fillColor=#0050ef;strokeWidth=0.5;fontColor=#ffffff;movable=1;resizable=1;rotatable=1;deletable=1;editable=1;locked=0;connectable=1;container=0;" vertex="1" parent="Tk_3Gi3uglissdDTNCGx-1">
          <mxGeometry x="51.54000000000019" y="8.738695652173902" width="12" height="1.4782608695652173" as="geometry" />
        </mxCell>
        <mxCell id="Tk_3Gi3uglissdDTNCGx-217" value="" style="group;strokeColor=#000000;" vertex="1" connectable="0" parent="Tk_3Gi3uglissdDTNCGx-218">
          <mxGeometry x="280.8" y="37.34" width="146" height="41.999999999999986" as="geometry" />
        </mxCell>
        <mxCell id="Tk_3Gi3uglissdDTNCGx-47" value="" style="rounded=0;whiteSpace=wrap;html=1;strokeColor=none;fillColor=#333333;strokeWidth=0.5;container=0;movable=1;resizable=1;rotatable=1;deletable=1;editable=1;locked=0;connectable=1;" vertex="1" parent="Tk_3Gi3uglissdDTNCGx-217">
          <mxGeometry width="146" height="42" as="geometry" />
        </mxCell>
        <mxCell id="Tk_3Gi3uglissdDTNCGx-48" value="" style="rounded=0;whiteSpace=wrap;html=1;strokeColor=#333333;fillColor=#222222;strokeWidth=0.5;movable=1;resizable=1;rotatable=1;deletable=1;editable=1;locked=0;connectable=1;container=0;" vertex="1" parent="Tk_3Gi3uglissdDTNCGx-217">
          <mxGeometry x="1.5036363636356782" y="33.50086956521737" width="7" height="7" as="geometry" />
        </mxCell>
        <mxCell id="Tk_3Gi3uglissdDTNCGx-128" value="" style="rounded=0;whiteSpace=wrap;html=1;strokeColor=#333333;fillColor=#222222;strokeWidth=0.5;movable=1;resizable=1;rotatable=1;deletable=1;editable=1;locked=0;connectable=1;container=0;" vertex="1" parent="Tk_3Gi3uglissdDTNCGx-217">
          <mxGeometry x="9.503636363635678" y="33.50086956521737" width="7" height="7" as="geometry" />
        </mxCell>
        <mxCell id="Tk_3Gi3uglissdDTNCGx-129" value="" style="rounded=0;whiteSpace=wrap;html=1;strokeColor=#333333;fillColor=#222222;strokeWidth=0.5;movable=1;resizable=1;rotatable=1;deletable=1;editable=1;locked=0;connectable=1;container=0;" vertex="1" parent="Tk_3Gi3uglissdDTNCGx-217">
          <mxGeometry x="17.503636363635678" y="33.50086956521737" width="7" height="7" as="geometry" />
        </mxCell>
        <mxCell id="Tk_3Gi3uglissdDTNCGx-130" value="" style="rounded=0;whiteSpace=wrap;html=1;strokeColor=#333333;fillColor=#222222;strokeWidth=0.5;movable=1;resizable=1;rotatable=1;deletable=1;editable=1;locked=0;connectable=1;container=0;" vertex="1" parent="Tk_3Gi3uglissdDTNCGx-217">
          <mxGeometry x="25.503636363635678" y="33.50086956521737" width="7" height="7" as="geometry" />
        </mxCell>
        <mxCell id="Tk_3Gi3uglissdDTNCGx-131" value="" style="rounded=0;whiteSpace=wrap;html=1;strokeColor=#222222;fillColor=#333333;strokeWidth=0.1;movable=1;resizable=1;rotatable=1;deletable=1;editable=1;locked=0;connectable=1;container=0;" vertex="1" parent="Tk_3Gi3uglissdDTNCGx-217">
          <mxGeometry x="33.50363636363568" y="33.50086956521737" width="7" height="7" as="geometry" />
        </mxCell>
        <mxCell id="Tk_3Gi3uglissdDTNCGx-132" value="" style="rounded=0;whiteSpace=wrap;html=1;strokeColor=#333333;fillColor=#222222;strokeWidth=0.5;movable=1;resizable=1;rotatable=1;deletable=1;editable=1;locked=0;connectable=1;container=0;" vertex="1" parent="Tk_3Gi3uglissdDTNCGx-217">
          <mxGeometry x="41.50363636363568" y="33.50086956521737" width="7" height="7" as="geometry" />
        </mxCell>
        <mxCell id="Tk_3Gi3uglissdDTNCGx-133" value="" style="rounded=0;whiteSpace=wrap;html=1;strokeColor=#333333;fillColor=#222222;strokeWidth=0.5;movable=1;resizable=1;rotatable=1;deletable=1;editable=1;locked=0;connectable=1;container=0;" vertex="1" parent="Tk_3Gi3uglissdDTNCGx-217">
          <mxGeometry x="49.50363636363568" y="33.50086956521737" width="7" height="7" as="geometry" />
        </mxCell>
        <mxCell id="Tk_3Gi3uglissdDTNCGx-134" value="" style="rounded=0;whiteSpace=wrap;html=1;strokeColor=#333333;fillColor=#222222;strokeWidth=0.5;movable=1;resizable=1;rotatable=1;deletable=1;editable=1;locked=0;connectable=1;container=0;" vertex="1" parent="Tk_3Gi3uglissdDTNCGx-217">
          <mxGeometry x="57.50363636363568" y="33.50086956521737" width="7" height="7" as="geometry" />
        </mxCell>
        <mxCell id="Tk_3Gi3uglissdDTNCGx-135" value="" style="rounded=0;whiteSpace=wrap;html=1;strokeColor=#222222;fillColor=#333333;strokeWidth=0.1;movable=1;resizable=1;rotatable=1;deletable=1;editable=1;locked=0;connectable=1;container=0;align=center;verticalAlign=middle;fontFamily=Helvetica;fontSize=12;fontColor=default;" vertex="1" parent="Tk_3Gi3uglissdDTNCGx-217">
          <mxGeometry x="65.50363636363568" y="33.50086956521737" width="7" height="7" as="geometry" />
        </mxCell>
        <mxCell id="Tk_3Gi3uglissdDTNCGx-136" value="" style="rounded=0;whiteSpace=wrap;html=1;strokeColor=#222222;fillColor=#333333;strokeWidth=0.1;movable=1;resizable=1;rotatable=1;deletable=1;editable=1;locked=0;connectable=1;container=0;align=center;verticalAlign=middle;fontFamily=Helvetica;fontSize=12;fontColor=default;" vertex="1" parent="Tk_3Gi3uglissdDTNCGx-217">
          <mxGeometry x="73.50363636363568" y="33.50086956521737" width="7" height="7" as="geometry" />
        </mxCell>
        <mxCell id="Tk_3Gi3uglissdDTNCGx-137" value="" style="rounded=0;whiteSpace=wrap;html=1;strokeColor=#333333;fillColor=#222222;strokeWidth=0.5;movable=1;resizable=1;rotatable=1;deletable=1;editable=1;locked=0;connectable=1;container=0;" vertex="1" parent="Tk_3Gi3uglissdDTNCGx-217">
          <mxGeometry x="81.50363636363568" y="33.50086956521737" width="7" height="7" as="geometry" />
        </mxCell>
        <mxCell id="Tk_3Gi3uglissdDTNCGx-138" value="" style="rounded=0;whiteSpace=wrap;html=1;strokeColor=#333333;fillColor=#222222;strokeWidth=0.5;movable=1;resizable=1;rotatable=1;deletable=1;editable=1;locked=0;connectable=1;container=0;" vertex="1" parent="Tk_3Gi3uglissdDTNCGx-217">
          <mxGeometry x="89.50363636363568" y="33.50086956521737" width="7" height="7" as="geometry" />
        </mxCell>
        <mxCell id="Tk_3Gi3uglissdDTNCGx-139" value="" style="rounded=0;whiteSpace=wrap;html=1;strokeColor=#333333;fillColor=#222222;strokeWidth=0.5;movable=1;resizable=1;rotatable=1;deletable=1;editable=1;locked=0;connectable=1;container=0;" vertex="1" parent="Tk_3Gi3uglissdDTNCGx-217">
          <mxGeometry x="97.50363636363568" y="33.50086956521737" width="7" height="7" as="geometry" />
        </mxCell>
        <mxCell id="Tk_3Gi3uglissdDTNCGx-140" value="" style="rounded=0;whiteSpace=wrap;html=1;strokeColor=#222222;fillColor=#333333;strokeWidth=0.1;movable=1;resizable=1;rotatable=1;deletable=1;editable=1;locked=0;connectable=1;container=0;align=center;verticalAlign=middle;fontFamily=Helvetica;fontSize=12;fontColor=default;" vertex="1" parent="Tk_3Gi3uglissdDTNCGx-217">
          <mxGeometry x="105.50363636363568" y="33.50086956521737" width="7" height="7" as="geometry" />
        </mxCell>
        <mxCell id="Tk_3Gi3uglissdDTNCGx-141" value="" style="rounded=0;whiteSpace=wrap;html=1;strokeColor=#333333;fillColor=#222222;strokeWidth=0.5;movable=1;resizable=1;rotatable=1;deletable=1;editable=1;locked=0;connectable=1;container=0;" vertex="1" parent="Tk_3Gi3uglissdDTNCGx-217">
          <mxGeometry x="113.50363636363568" y="33.50086956521737" width="7" height="7" as="geometry" />
        </mxCell>
        <mxCell id="Tk_3Gi3uglissdDTNCGx-142" value="" style="rounded=0;whiteSpace=wrap;html=1;strokeColor=#333333;fillColor=#222222;strokeWidth=0.5;movable=1;resizable=1;rotatable=1;deletable=1;editable=1;locked=0;connectable=1;container=0;" vertex="1" parent="Tk_3Gi3uglissdDTNCGx-217">
          <mxGeometry x="121.50363636363568" y="33.50086956521737" width="7" height="7" as="geometry" />
        </mxCell>
        <mxCell id="Tk_3Gi3uglissdDTNCGx-143" value="" style="rounded=0;whiteSpace=wrap;html=1;strokeColor=#333333;fillColor=#222222;strokeWidth=0.5;movable=1;resizable=1;rotatable=1;deletable=1;editable=1;locked=0;connectable=1;container=0;" vertex="1" parent="Tk_3Gi3uglissdDTNCGx-217">
          <mxGeometry x="129.50363636363568" y="33.50086956521737" width="7" height="7" as="geometry" />
        </mxCell>
        <mxCell id="Tk_3Gi3uglissdDTNCGx-144" value="" style="rounded=0;whiteSpace=wrap;html=1;strokeColor=#333333;fillColor=#222222;strokeWidth=0.5;movable=1;resizable=1;rotatable=1;deletable=1;editable=1;locked=0;connectable=1;container=0;" vertex="1" parent="Tk_3Gi3uglissdDTNCGx-217">
          <mxGeometry x="137.50363636363568" y="33.50086956521737" width="7" height="7" as="geometry" />
        </mxCell>
        <mxCell id="Tk_3Gi3uglissdDTNCGx-145" value="" style="rounded=0;whiteSpace=wrap;html=1;strokeColor=#333333;fillColor=#222222;strokeWidth=0.5;movable=1;resizable=1;rotatable=1;deletable=1;editable=1;locked=0;connectable=1;container=0;" vertex="1" parent="Tk_3Gi3uglissdDTNCGx-217">
          <mxGeometry x="1.5036363636356782" y="25.50086956521737" width="7" height="7" as="geometry" />
        </mxCell>
        <mxCell id="Tk_3Gi3uglissdDTNCGx-146" value="" style="rounded=0;whiteSpace=wrap;html=1;strokeColor=#333333;fillColor=#222222;strokeWidth=0.5;movable=1;resizable=1;rotatable=1;deletable=1;editable=1;locked=0;connectable=1;container=0;" vertex="1" parent="Tk_3Gi3uglissdDTNCGx-217">
          <mxGeometry x="9.503636363635678" y="25.50086956521737" width="7" height="7" as="geometry" />
        </mxCell>
        <mxCell id="Tk_3Gi3uglissdDTNCGx-147" value="" style="rounded=0;whiteSpace=wrap;html=1;strokeColor=#333333;fillColor=#222222;strokeWidth=0.5;movable=1;resizable=1;rotatable=1;deletable=1;editable=1;locked=0;connectable=1;container=0;" vertex="1" parent="Tk_3Gi3uglissdDTNCGx-217">
          <mxGeometry x="17.503636363635678" y="25.50086956521737" width="7" height="7" as="geometry" />
        </mxCell>
        <mxCell id="Tk_3Gi3uglissdDTNCGx-148" value="" style="rounded=0;whiteSpace=wrap;html=1;strokeColor=#333333;fillColor=#222222;strokeWidth=0.5;movable=1;resizable=1;rotatable=1;deletable=1;editable=1;locked=0;connectable=1;container=0;" vertex="1" parent="Tk_3Gi3uglissdDTNCGx-217">
          <mxGeometry x="25.503636363635678" y="25.50086956521737" width="7" height="7" as="geometry" />
        </mxCell>
        <mxCell id="Tk_3Gi3uglissdDTNCGx-149" value="" style="rounded=0;whiteSpace=wrap;html=1;strokeColor=#333333;fillColor=#222222;strokeWidth=0.5;movable=1;resizable=1;rotatable=1;deletable=1;editable=1;locked=0;connectable=1;container=0;" vertex="1" parent="Tk_3Gi3uglissdDTNCGx-217">
          <mxGeometry x="33.50363636363568" y="25.50086956521737" width="7" height="7" as="geometry" />
        </mxCell>
        <mxCell id="Tk_3Gi3uglissdDTNCGx-150" value="" style="rounded=0;whiteSpace=wrap;html=1;strokeColor=#333333;fillColor=#222222;strokeWidth=0.5;movable=1;resizable=1;rotatable=1;deletable=1;editable=1;locked=0;connectable=1;container=0;" vertex="1" parent="Tk_3Gi3uglissdDTNCGx-217">
          <mxGeometry x="41.50363636363568" y="25.50086956521737" width="7" height="7" as="geometry" />
        </mxCell>
        <mxCell id="Tk_3Gi3uglissdDTNCGx-151" value="" style="rounded=0;whiteSpace=wrap;html=1;strokeColor=#333333;fillColor=#222222;strokeWidth=0.5;movable=1;resizable=1;rotatable=1;deletable=1;editable=1;locked=0;connectable=1;container=0;" vertex="1" parent="Tk_3Gi3uglissdDTNCGx-217">
          <mxGeometry x="49.50363636363568" y="25.50086956521737" width="7" height="7" as="geometry" />
        </mxCell>
        <mxCell id="Tk_3Gi3uglissdDTNCGx-152" value="" style="rounded=0;whiteSpace=wrap;html=1;strokeColor=#333333;fillColor=#222222;strokeWidth=0.5;movable=1;resizable=1;rotatable=1;deletable=1;editable=1;locked=0;connectable=1;container=0;" vertex="1" parent="Tk_3Gi3uglissdDTNCGx-217">
          <mxGeometry x="57.50363636363568" y="25.50086956521737" width="7" height="7" as="geometry" />
        </mxCell>
        <mxCell id="Tk_3Gi3uglissdDTNCGx-153" value="" style="rounded=0;whiteSpace=wrap;html=1;strokeColor=#333333;fillColor=#222222;strokeWidth=0.5;movable=1;resizable=1;rotatable=1;deletable=1;editable=1;locked=0;connectable=1;container=0;" vertex="1" parent="Tk_3Gi3uglissdDTNCGx-217">
          <mxGeometry x="65.50363636363568" y="25.50086956521737" width="7" height="7" as="geometry" />
        </mxCell>
        <mxCell id="Tk_3Gi3uglissdDTNCGx-154" value="" style="rounded=0;whiteSpace=wrap;html=1;strokeColor=#333333;fillColor=#222222;strokeWidth=0.5;movable=1;resizable=1;rotatable=1;deletable=1;editable=1;locked=0;connectable=1;container=0;" vertex="1" parent="Tk_3Gi3uglissdDTNCGx-217">
          <mxGeometry x="73.50363636363568" y="25.50086956521737" width="7" height="7" as="geometry" />
        </mxCell>
        <mxCell id="Tk_3Gi3uglissdDTNCGx-155" value="" style="rounded=0;whiteSpace=wrap;html=1;strokeColor=#333333;fillColor=#222222;strokeWidth=0.5;movable=1;resizable=1;rotatable=1;deletable=1;editable=1;locked=0;connectable=1;container=0;" vertex="1" parent="Tk_3Gi3uglissdDTNCGx-217">
          <mxGeometry x="81.50363636363568" y="25.50086956521737" width="7" height="7" as="geometry" />
        </mxCell>
        <mxCell id="Tk_3Gi3uglissdDTNCGx-156" value="" style="rounded=0;whiteSpace=wrap;html=1;strokeColor=#333333;fillColor=#222222;strokeWidth=0.5;movable=1;resizable=1;rotatable=1;deletable=1;editable=1;locked=0;connectable=1;container=0;" vertex="1" parent="Tk_3Gi3uglissdDTNCGx-217">
          <mxGeometry x="89.50363636363568" y="25.50086956521737" width="7" height="7" as="geometry" />
        </mxCell>
        <mxCell id="Tk_3Gi3uglissdDTNCGx-157" value="" style="rounded=0;whiteSpace=wrap;html=1;strokeColor=#333333;fillColor=#222222;strokeWidth=0.5;movable=1;resizable=1;rotatable=1;deletable=1;editable=1;locked=0;connectable=1;container=0;" vertex="1" parent="Tk_3Gi3uglissdDTNCGx-217">
          <mxGeometry x="97.50363636363568" y="25.50086956521737" width="7" height="7" as="geometry" />
        </mxCell>
        <mxCell id="Tk_3Gi3uglissdDTNCGx-158" value="" style="rounded=0;whiteSpace=wrap;html=1;strokeColor=#333333;fillColor=#222222;strokeWidth=0.5;movable=1;resizable=1;rotatable=1;deletable=1;editable=1;locked=0;connectable=1;container=0;" vertex="1" parent="Tk_3Gi3uglissdDTNCGx-217">
          <mxGeometry x="105.50363636363568" y="25.50086956521737" width="7" height="7" as="geometry" />
        </mxCell>
        <mxCell id="Tk_3Gi3uglissdDTNCGx-159" value="" style="rounded=0;whiteSpace=wrap;html=1;strokeColor=#333333;fillColor=#222222;strokeWidth=0.5;movable=1;resizable=1;rotatable=1;deletable=1;editable=1;locked=0;connectable=1;container=0;" vertex="1" parent="Tk_3Gi3uglissdDTNCGx-217">
          <mxGeometry x="113.50363636363568" y="25.50086956521737" width="7" height="7" as="geometry" />
        </mxCell>
        <mxCell id="Tk_3Gi3uglissdDTNCGx-160" value="" style="rounded=0;whiteSpace=wrap;html=1;strokeColor=#333333;fillColor=#222222;strokeWidth=0.5;movable=1;resizable=1;rotatable=1;deletable=1;editable=1;locked=0;connectable=1;container=0;" vertex="1" parent="Tk_3Gi3uglissdDTNCGx-217">
          <mxGeometry x="121.50363636363568" y="25.50086956521737" width="7" height="7" as="geometry" />
        </mxCell>
        <mxCell id="Tk_3Gi3uglissdDTNCGx-161" value="" style="rounded=0;whiteSpace=wrap;html=1;strokeColor=#333333;fillColor=#222222;strokeWidth=0.5;movable=1;resizable=1;rotatable=1;deletable=1;editable=1;locked=0;connectable=1;container=0;" vertex="1" parent="Tk_3Gi3uglissdDTNCGx-217">
          <mxGeometry x="129.50363636363568" y="25.50086956521737" width="7" height="7" as="geometry" />
        </mxCell>
        <mxCell id="Tk_3Gi3uglissdDTNCGx-162" value="" style="rounded=0;whiteSpace=wrap;html=1;strokeColor=#333333;fillColor=#222222;strokeWidth=0.5;movable=1;resizable=1;rotatable=1;deletable=1;editable=1;locked=0;connectable=1;container=0;" vertex="1" parent="Tk_3Gi3uglissdDTNCGx-217">
          <mxGeometry x="137.50363636363568" y="25.50086956521737" width="7" height="7" as="geometry" />
        </mxCell>
        <mxCell id="Tk_3Gi3uglissdDTNCGx-163" value="" style="rounded=0;whiteSpace=wrap;html=1;strokeColor=#333333;fillColor=#222222;strokeWidth=0.5;movable=1;resizable=1;rotatable=1;deletable=1;editable=1;locked=0;connectable=1;container=0;" vertex="1" parent="Tk_3Gi3uglissdDTNCGx-217">
          <mxGeometry x="1.5036363636356782" y="17.50086956521737" width="7" height="7" as="geometry" />
        </mxCell>
        <mxCell id="Tk_3Gi3uglissdDTNCGx-164" value="" style="rounded=0;whiteSpace=wrap;html=1;strokeColor=#333333;fillColor=#222222;strokeWidth=0.5;movable=1;resizable=1;rotatable=1;deletable=1;editable=1;locked=0;connectable=1;container=0;" vertex="1" parent="Tk_3Gi3uglissdDTNCGx-217">
          <mxGeometry x="9.503636363635678" y="17.50086956521737" width="7" height="7" as="geometry" />
        </mxCell>
        <mxCell id="Tk_3Gi3uglissdDTNCGx-165" value="" style="rounded=0;whiteSpace=wrap;html=1;strokeColor=#333333;fillColor=#222222;strokeWidth=0.5;movable=1;resizable=1;rotatable=1;deletable=1;editable=1;locked=0;connectable=1;container=0;" vertex="1" parent="Tk_3Gi3uglissdDTNCGx-217">
          <mxGeometry x="17.503636363635678" y="17.50086956521737" width="7" height="7" as="geometry" />
        </mxCell>
        <mxCell id="Tk_3Gi3uglissdDTNCGx-166" value="" style="rounded=0;whiteSpace=wrap;html=1;strokeColor=#333333;fillColor=#222222;strokeWidth=0.5;movable=1;resizable=1;rotatable=1;deletable=1;editable=1;locked=0;connectable=1;container=0;" vertex="1" parent="Tk_3Gi3uglissdDTNCGx-217">
          <mxGeometry x="25.503636363635678" y="17.50086956521737" width="7" height="7" as="geometry" />
        </mxCell>
        <mxCell id="Tk_3Gi3uglissdDTNCGx-167" value="" style="rounded=0;whiteSpace=wrap;html=1;strokeColor=#333333;fillColor=#222222;strokeWidth=0.5;movable=1;resizable=1;rotatable=1;deletable=1;editable=1;locked=0;connectable=1;container=0;" vertex="1" parent="Tk_3Gi3uglissdDTNCGx-217">
          <mxGeometry x="33.50363636363568" y="17.50086956521737" width="7" height="7" as="geometry" />
        </mxCell>
        <mxCell id="Tk_3Gi3uglissdDTNCGx-168" value="" style="rounded=0;whiteSpace=wrap;html=1;strokeColor=#333333;fillColor=#222222;strokeWidth=0.5;movable=1;resizable=1;rotatable=1;deletable=1;editable=1;locked=0;connectable=1;container=0;" vertex="1" parent="Tk_3Gi3uglissdDTNCGx-217">
          <mxGeometry x="41.50363636363568" y="17.50086956521737" width="7" height="7" as="geometry" />
        </mxCell>
        <mxCell id="Tk_3Gi3uglissdDTNCGx-169" value="" style="rounded=0;whiteSpace=wrap;html=1;strokeColor=#333333;fillColor=#222222;strokeWidth=0.5;movable=1;resizable=1;rotatable=1;deletable=1;editable=1;locked=0;connectable=1;container=0;" vertex="1" parent="Tk_3Gi3uglissdDTNCGx-217">
          <mxGeometry x="49.50363636363568" y="17.50086956521737" width="7" height="7" as="geometry" />
        </mxCell>
        <mxCell id="Tk_3Gi3uglissdDTNCGx-170" value="" style="rounded=0;whiteSpace=wrap;html=1;strokeColor=#333333;fillColor=#222222;strokeWidth=0.5;movable=1;resizable=1;rotatable=1;deletable=1;editable=1;locked=0;connectable=1;container=0;" vertex="1" parent="Tk_3Gi3uglissdDTNCGx-217">
          <mxGeometry x="57.50363636363568" y="17.50086956521737" width="7" height="7" as="geometry" />
        </mxCell>
        <mxCell id="Tk_3Gi3uglissdDTNCGx-171" value="" style="rounded=0;whiteSpace=wrap;html=1;strokeColor=#333333;fillColor=#222222;strokeWidth=0.5;movable=1;resizable=1;rotatable=1;deletable=1;editable=1;locked=0;connectable=1;container=0;" vertex="1" parent="Tk_3Gi3uglissdDTNCGx-217">
          <mxGeometry x="65.50363636363568" y="17.50086956521737" width="7" height="7" as="geometry" />
        </mxCell>
        <mxCell id="Tk_3Gi3uglissdDTNCGx-172" value="" style="rounded=0;whiteSpace=wrap;html=1;strokeColor=#333333;fillColor=#222222;strokeWidth=0.5;movable=1;resizable=1;rotatable=1;deletable=1;editable=1;locked=0;connectable=1;container=0;" vertex="1" parent="Tk_3Gi3uglissdDTNCGx-217">
          <mxGeometry x="73.50363636363568" y="17.50086956521737" width="7" height="7" as="geometry" />
        </mxCell>
        <mxCell id="Tk_3Gi3uglissdDTNCGx-173" value="" style="rounded=0;whiteSpace=wrap;html=1;strokeColor=#333333;fillColor=#222222;strokeWidth=0.5;movable=1;resizable=1;rotatable=1;deletable=1;editable=1;locked=0;connectable=1;container=0;" vertex="1" parent="Tk_3Gi3uglissdDTNCGx-217">
          <mxGeometry x="81.50363636363568" y="17.50086956521737" width="7" height="7" as="geometry" />
        </mxCell>
        <mxCell id="Tk_3Gi3uglissdDTNCGx-174" value="" style="rounded=0;whiteSpace=wrap;html=1;strokeColor=#333333;fillColor=#222222;strokeWidth=0.5;movable=1;resizable=1;rotatable=1;deletable=1;editable=1;locked=0;connectable=1;container=0;" vertex="1" parent="Tk_3Gi3uglissdDTNCGx-217">
          <mxGeometry x="89.50363636363568" y="17.50086956521737" width="7" height="7" as="geometry" />
        </mxCell>
        <mxCell id="Tk_3Gi3uglissdDTNCGx-175" value="" style="rounded=0;whiteSpace=wrap;html=1;strokeColor=#333333;fillColor=#222222;strokeWidth=0.5;movable=1;resizable=1;rotatable=1;deletable=1;editable=1;locked=0;connectable=1;container=0;" vertex="1" parent="Tk_3Gi3uglissdDTNCGx-217">
          <mxGeometry x="97.50363636363568" y="17.50086956521737" width="7" height="7" as="geometry" />
        </mxCell>
        <mxCell id="Tk_3Gi3uglissdDTNCGx-176" value="" style="rounded=0;whiteSpace=wrap;html=1;strokeColor=#333333;fillColor=#222222;strokeWidth=0.5;movable=1;resizable=1;rotatable=1;deletable=1;editable=1;locked=0;connectable=1;container=0;" vertex="1" parent="Tk_3Gi3uglissdDTNCGx-217">
          <mxGeometry x="105.50363636363568" y="17.50086956521737" width="7" height="7" as="geometry" />
        </mxCell>
        <mxCell id="Tk_3Gi3uglissdDTNCGx-177" value="" style="rounded=0;whiteSpace=wrap;html=1;strokeColor=#333333;fillColor=#222222;strokeWidth=0.5;movable=1;resizable=1;rotatable=1;deletable=1;editable=1;locked=0;connectable=1;container=0;" vertex="1" parent="Tk_3Gi3uglissdDTNCGx-217">
          <mxGeometry x="113.50363636363568" y="17.50086956521737" width="7" height="7" as="geometry" />
        </mxCell>
        <mxCell id="Tk_3Gi3uglissdDTNCGx-178" value="" style="rounded=0;whiteSpace=wrap;html=1;strokeColor=#333333;fillColor=#222222;strokeWidth=0.5;movable=1;resizable=1;rotatable=1;deletable=1;editable=1;locked=0;connectable=1;container=0;" vertex="1" parent="Tk_3Gi3uglissdDTNCGx-217">
          <mxGeometry x="121.50363636363568" y="17.50086956521737" width="7" height="7" as="geometry" />
        </mxCell>
        <mxCell id="Tk_3Gi3uglissdDTNCGx-179" value="" style="rounded=0;whiteSpace=wrap;html=1;strokeColor=#333333;fillColor=#222222;strokeWidth=0.5;movable=1;resizable=1;rotatable=1;deletable=1;editable=1;locked=0;connectable=1;container=0;" vertex="1" parent="Tk_3Gi3uglissdDTNCGx-217">
          <mxGeometry x="129.50363636363568" y="17.50086956521737" width="7" height="7" as="geometry" />
        </mxCell>
        <mxCell id="Tk_3Gi3uglissdDTNCGx-180" value="" style="rounded=0;whiteSpace=wrap;html=1;strokeColor=#333333;fillColor=#222222;strokeWidth=0.5;movable=1;resizable=1;rotatable=1;deletable=1;editable=1;locked=0;connectable=1;container=0;" vertex="1" parent="Tk_3Gi3uglissdDTNCGx-217">
          <mxGeometry x="137.50363636363568" y="17.50086956521737" width="7" height="7" as="geometry" />
        </mxCell>
        <mxCell id="Tk_3Gi3uglissdDTNCGx-181" value="" style="rounded=0;whiteSpace=wrap;html=1;strokeColor=#333333;fillColor=#222222;strokeWidth=0.5;movable=1;resizable=1;rotatable=1;deletable=1;editable=1;locked=0;connectable=1;container=0;" vertex="1" parent="Tk_3Gi3uglissdDTNCGx-217">
          <mxGeometry x="1.5036363636356782" y="9.500869565217371" width="7" height="7" as="geometry" />
        </mxCell>
        <mxCell id="Tk_3Gi3uglissdDTNCGx-182" value="" style="rounded=0;whiteSpace=wrap;html=1;strokeColor=#333333;fillColor=#222222;strokeWidth=0.5;movable=1;resizable=1;rotatable=1;deletable=1;editable=1;locked=0;connectable=1;container=0;" vertex="1" parent="Tk_3Gi3uglissdDTNCGx-217">
          <mxGeometry x="9.503636363635678" y="9.500869565217371" width="7" height="7" as="geometry" />
        </mxCell>
        <mxCell id="Tk_3Gi3uglissdDTNCGx-183" value="" style="rounded=0;whiteSpace=wrap;html=1;strokeColor=#333333;fillColor=#222222;strokeWidth=0.5;movable=1;resizable=1;rotatable=1;deletable=1;editable=1;locked=0;connectable=1;container=0;" vertex="1" parent="Tk_3Gi3uglissdDTNCGx-217">
          <mxGeometry x="17.503636363635678" y="9.500869565217371" width="7" height="7" as="geometry" />
        </mxCell>
        <mxCell id="Tk_3Gi3uglissdDTNCGx-184" value="" style="rounded=0;whiteSpace=wrap;html=1;strokeColor=#333333;fillColor=#222222;strokeWidth=0.5;movable=1;resizable=1;rotatable=1;deletable=1;editable=1;locked=0;connectable=1;container=0;" vertex="1" parent="Tk_3Gi3uglissdDTNCGx-217">
          <mxGeometry x="25.503636363635678" y="9.500869565217371" width="7" height="7" as="geometry" />
        </mxCell>
        <mxCell id="Tk_3Gi3uglissdDTNCGx-185" value="" style="rounded=0;whiteSpace=wrap;html=1;strokeColor=#333333;fillColor=#222222;strokeWidth=0.5;movable=1;resizable=1;rotatable=1;deletable=1;editable=1;locked=0;connectable=1;container=0;" vertex="1" parent="Tk_3Gi3uglissdDTNCGx-217">
          <mxGeometry x="33.50363636363568" y="9.500869565217371" width="7" height="7" as="geometry" />
        </mxCell>
        <mxCell id="Tk_3Gi3uglissdDTNCGx-186" value="" style="rounded=0;whiteSpace=wrap;html=1;strokeColor=#333333;fillColor=#222222;strokeWidth=0.5;movable=1;resizable=1;rotatable=1;deletable=1;editable=1;locked=0;connectable=1;container=0;" vertex="1" parent="Tk_3Gi3uglissdDTNCGx-217">
          <mxGeometry x="41.50363636363568" y="9.500869565217371" width="7" height="7" as="geometry" />
        </mxCell>
        <mxCell id="Tk_3Gi3uglissdDTNCGx-187" value="" style="rounded=0;whiteSpace=wrap;html=1;strokeColor=#333333;fillColor=#222222;strokeWidth=0.5;movable=1;resizable=1;rotatable=1;deletable=1;editable=1;locked=0;connectable=1;container=0;" vertex="1" parent="Tk_3Gi3uglissdDTNCGx-217">
          <mxGeometry x="49.50363636363568" y="9.500869565217371" width="7" height="7" as="geometry" />
        </mxCell>
        <mxCell id="Tk_3Gi3uglissdDTNCGx-188" value="" style="rounded=0;whiteSpace=wrap;html=1;strokeColor=#333333;fillColor=#222222;strokeWidth=0.5;movable=1;resizable=1;rotatable=1;deletable=1;editable=1;locked=0;connectable=1;container=0;" vertex="1" parent="Tk_3Gi3uglissdDTNCGx-217">
          <mxGeometry x="57.50363636363568" y="9.500869565217371" width="7" height="7" as="geometry" />
        </mxCell>
        <mxCell id="Tk_3Gi3uglissdDTNCGx-189" value="" style="rounded=0;whiteSpace=wrap;html=1;strokeColor=#333333;fillColor=#222222;strokeWidth=0.5;movable=1;resizable=1;rotatable=1;deletable=1;editable=1;locked=0;connectable=1;container=0;" vertex="1" parent="Tk_3Gi3uglissdDTNCGx-217">
          <mxGeometry x="65.50363636363568" y="9.500869565217371" width="7" height="7" as="geometry" />
        </mxCell>
        <mxCell id="Tk_3Gi3uglissdDTNCGx-190" value="" style="rounded=0;whiteSpace=wrap;html=1;strokeColor=#333333;fillColor=#222222;strokeWidth=0.5;movable=1;resizable=1;rotatable=1;deletable=1;editable=1;locked=0;connectable=1;container=0;" vertex="1" parent="Tk_3Gi3uglissdDTNCGx-217">
          <mxGeometry x="73.50363636363568" y="9.500869565217371" width="7" height="7" as="geometry" />
        </mxCell>
        <mxCell id="Tk_3Gi3uglissdDTNCGx-191" value="" style="rounded=0;whiteSpace=wrap;html=1;strokeColor=#333333;fillColor=#222222;strokeWidth=0.5;movable=1;resizable=1;rotatable=1;deletable=1;editable=1;locked=0;connectable=1;container=0;" vertex="1" parent="Tk_3Gi3uglissdDTNCGx-217">
          <mxGeometry x="81.50363636363568" y="9.500869565217371" width="7" height="7" as="geometry" />
        </mxCell>
        <mxCell id="Tk_3Gi3uglissdDTNCGx-192" value="" style="rounded=0;whiteSpace=wrap;html=1;strokeColor=#333333;fillColor=#222222;strokeWidth=0.5;movable=1;resizable=1;rotatable=1;deletable=1;editable=1;locked=0;connectable=1;container=0;" vertex="1" parent="Tk_3Gi3uglissdDTNCGx-217">
          <mxGeometry x="89.50363636363568" y="9.500869565217371" width="7" height="7" as="geometry" />
        </mxCell>
        <mxCell id="Tk_3Gi3uglissdDTNCGx-193" value="" style="rounded=0;whiteSpace=wrap;html=1;strokeColor=#333333;fillColor=#222222;strokeWidth=0.5;movable=1;resizable=1;rotatable=1;deletable=1;editable=1;locked=0;connectable=1;container=0;" vertex="1" parent="Tk_3Gi3uglissdDTNCGx-217">
          <mxGeometry x="97.50363636363568" y="9.500869565217371" width="7" height="7" as="geometry" />
        </mxCell>
        <mxCell id="Tk_3Gi3uglissdDTNCGx-194" value="" style="rounded=0;whiteSpace=wrap;html=1;strokeColor=#333333;fillColor=#222222;strokeWidth=0.5;movable=1;resizable=1;rotatable=1;deletable=1;editable=1;locked=0;connectable=1;container=0;" vertex="1" parent="Tk_3Gi3uglissdDTNCGx-217">
          <mxGeometry x="105.50363636363568" y="9.500869565217371" width="7" height="7" as="geometry" />
        </mxCell>
        <mxCell id="Tk_3Gi3uglissdDTNCGx-195" value="" style="rounded=0;whiteSpace=wrap;html=1;strokeColor=#333333;fillColor=#222222;strokeWidth=0.5;movable=1;resizable=1;rotatable=1;deletable=1;editable=1;locked=0;connectable=1;container=0;" vertex="1" parent="Tk_3Gi3uglissdDTNCGx-217">
          <mxGeometry x="113.50363636363568" y="9.500869565217371" width="7" height="7" as="geometry" />
        </mxCell>
        <mxCell id="Tk_3Gi3uglissdDTNCGx-196" value="" style="rounded=0;whiteSpace=wrap;html=1;strokeColor=#333333;fillColor=#222222;strokeWidth=0.5;movable=1;resizable=1;rotatable=1;deletable=1;editable=1;locked=0;connectable=1;container=0;" vertex="1" parent="Tk_3Gi3uglissdDTNCGx-217">
          <mxGeometry x="121.50363636363568" y="9.500869565217371" width="7" height="7" as="geometry" />
        </mxCell>
        <mxCell id="Tk_3Gi3uglissdDTNCGx-197" value="" style="rounded=0;whiteSpace=wrap;html=1;strokeColor=#333333;fillColor=#222222;strokeWidth=0.5;movable=1;resizable=1;rotatable=1;deletable=1;editable=1;locked=0;connectable=1;container=0;" vertex="1" parent="Tk_3Gi3uglissdDTNCGx-217">
          <mxGeometry x="129.50363636363568" y="9.500869565217371" width="7" height="7" as="geometry" />
        </mxCell>
        <mxCell id="Tk_3Gi3uglissdDTNCGx-198" value="" style="rounded=0;whiteSpace=wrap;html=1;strokeColor=#333333;fillColor=#222222;strokeWidth=0.5;movable=1;resizable=1;rotatable=1;deletable=1;editable=1;locked=0;connectable=1;container=0;" vertex="1" parent="Tk_3Gi3uglissdDTNCGx-217">
          <mxGeometry x="137.50363636363568" y="9.500869565217371" width="7" height="7" as="geometry" />
        </mxCell>
        <mxCell id="Tk_3Gi3uglissdDTNCGx-199" value="" style="rounded=0;whiteSpace=wrap;html=1;strokeColor=#333333;fillColor=#222222;strokeWidth=0.5;movable=1;resizable=1;rotatable=1;deletable=1;editable=1;locked=0;connectable=1;container=0;" vertex="1" parent="Tk_3Gi3uglissdDTNCGx-217">
          <mxGeometry x="1.5036363636356782" y="1.5008695652173714" width="7" height="7" as="geometry" />
        </mxCell>
        <mxCell id="Tk_3Gi3uglissdDTNCGx-200" value="" style="rounded=0;whiteSpace=wrap;html=1;strokeColor=#333333;fillColor=#222222;strokeWidth=0.5;movable=1;resizable=1;rotatable=1;deletable=1;editable=1;locked=0;connectable=1;container=0;" vertex="1" parent="Tk_3Gi3uglissdDTNCGx-217">
          <mxGeometry x="9.503636363635678" y="1.5008695652173714" width="7" height="7" as="geometry" />
        </mxCell>
        <mxCell id="Tk_3Gi3uglissdDTNCGx-201" value="" style="rounded=0;whiteSpace=wrap;html=1;strokeColor=#333333;fillColor=#222222;strokeWidth=0.5;movable=1;resizable=1;rotatable=1;deletable=1;editable=1;locked=0;connectable=1;container=0;" vertex="1" parent="Tk_3Gi3uglissdDTNCGx-217">
          <mxGeometry x="17.503636363635678" y="1.5008695652173714" width="7" height="7" as="geometry" />
        </mxCell>
        <mxCell id="Tk_3Gi3uglissdDTNCGx-202" value="" style="rounded=0;whiteSpace=wrap;html=1;strokeColor=#333333;fillColor=#222222;strokeWidth=0.5;movable=1;resizable=1;rotatable=1;deletable=1;editable=1;locked=0;connectable=1;container=0;" vertex="1" parent="Tk_3Gi3uglissdDTNCGx-217">
          <mxGeometry x="25.503636363635678" y="1.5008695652173714" width="7" height="7" as="geometry" />
        </mxCell>
        <mxCell id="Tk_3Gi3uglissdDTNCGx-203" value="" style="rounded=0;whiteSpace=wrap;html=1;strokeColor=#222222;fillColor=#333333;strokeWidth=0.1;movable=1;resizable=1;rotatable=1;deletable=1;editable=1;locked=0;connectable=1;container=0;align=center;verticalAlign=middle;fontFamily=Helvetica;fontSize=12;fontColor=default;" vertex="1" parent="Tk_3Gi3uglissdDTNCGx-217">
          <mxGeometry x="33.50363636363568" y="1.5008695652173714" width="7" height="7" as="geometry" />
        </mxCell>
        <mxCell id="Tk_3Gi3uglissdDTNCGx-204" value="" style="rounded=0;whiteSpace=wrap;html=1;strokeColor=#333333;fillColor=#222222;strokeWidth=0.5;movable=1;resizable=1;rotatable=1;deletable=1;editable=1;locked=0;connectable=1;container=0;" vertex="1" parent="Tk_3Gi3uglissdDTNCGx-217">
          <mxGeometry x="41.50363636363568" y="1.5008695652173714" width="7" height="7" as="geometry" />
        </mxCell>
        <mxCell id="Tk_3Gi3uglissdDTNCGx-205" value="" style="rounded=0;whiteSpace=wrap;html=1;strokeColor=#333333;fillColor=#222222;strokeWidth=0.5;movable=1;resizable=1;rotatable=1;deletable=1;editable=1;locked=0;connectable=1;container=0;" vertex="1" parent="Tk_3Gi3uglissdDTNCGx-217">
          <mxGeometry x="49.50363636363568" y="1.5008695652173714" width="7" height="7" as="geometry" />
        </mxCell>
        <mxCell id="Tk_3Gi3uglissdDTNCGx-206" value="" style="rounded=0;whiteSpace=wrap;html=1;strokeColor=#333333;fillColor=#222222;strokeWidth=0.5;movable=1;resizable=1;rotatable=1;deletable=1;editable=1;locked=0;connectable=1;container=0;" vertex="1" parent="Tk_3Gi3uglissdDTNCGx-217">
          <mxGeometry x="57.50363636363568" y="1.5008695652173714" width="7" height="7" as="geometry" />
        </mxCell>
        <mxCell id="Tk_3Gi3uglissdDTNCGx-207" value="" style="rounded=0;whiteSpace=wrap;html=1;strokeColor=#222222;fillColor=#333333;strokeWidth=0.1;movable=1;resizable=1;rotatable=1;deletable=1;editable=1;locked=0;connectable=1;container=0;align=center;verticalAlign=middle;fontFamily=Helvetica;fontSize=12;fontColor=default;" vertex="1" parent="Tk_3Gi3uglissdDTNCGx-217">
          <mxGeometry x="65.50363636363568" y="1.5008695652173714" width="7" height="7" as="geometry" />
        </mxCell>
        <mxCell id="Tk_3Gi3uglissdDTNCGx-208" value="" style="rounded=0;whiteSpace=wrap;html=1;strokeColor=#222222;fillColor=#333333;strokeWidth=0.1;movable=1;resizable=1;rotatable=1;deletable=1;editable=1;locked=0;connectable=1;container=0;align=center;verticalAlign=middle;fontFamily=Helvetica;fontSize=12;fontColor=default;" vertex="1" parent="Tk_3Gi3uglissdDTNCGx-217">
          <mxGeometry x="73.50363636363568" y="1.5008695652173714" width="7" height="7" as="geometry" />
        </mxCell>
        <mxCell id="Tk_3Gi3uglissdDTNCGx-209" value="" style="rounded=0;whiteSpace=wrap;html=1;strokeColor=#333333;fillColor=#222222;strokeWidth=0.5;movable=1;resizable=1;rotatable=1;deletable=1;editable=1;locked=0;connectable=1;container=0;" vertex="1" parent="Tk_3Gi3uglissdDTNCGx-217">
          <mxGeometry x="81.50363636363568" y="1.5008695652173714" width="7" height="7" as="geometry" />
        </mxCell>
        <mxCell id="Tk_3Gi3uglissdDTNCGx-210" value="" style="rounded=0;whiteSpace=wrap;html=1;strokeColor=#333333;fillColor=#222222;strokeWidth=0.5;movable=1;resizable=1;rotatable=1;deletable=1;editable=1;locked=0;connectable=1;container=0;" vertex="1" parent="Tk_3Gi3uglissdDTNCGx-217">
          <mxGeometry x="89.50363636363568" y="1.5008695652173714" width="7" height="7" as="geometry" />
        </mxCell>
        <mxCell id="Tk_3Gi3uglissdDTNCGx-211" value="" style="rounded=0;whiteSpace=wrap;html=1;strokeColor=#333333;fillColor=#222222;strokeWidth=0.5;movable=1;resizable=1;rotatable=1;deletable=1;editable=1;locked=0;connectable=1;container=0;" vertex="1" parent="Tk_3Gi3uglissdDTNCGx-217">
          <mxGeometry x="97.50363636363568" y="1.5008695652173714" width="7" height="7" as="geometry" />
        </mxCell>
        <mxCell id="Tk_3Gi3uglissdDTNCGx-212" value="" style="rounded=0;whiteSpace=wrap;html=1;strokeColor=#222222;fillColor=#333333;strokeWidth=0.1;movable=1;resizable=1;rotatable=1;deletable=1;editable=1;locked=0;connectable=1;container=0;align=center;verticalAlign=middle;fontFamily=Helvetica;fontSize=12;fontColor=default;" vertex="1" parent="Tk_3Gi3uglissdDTNCGx-217">
          <mxGeometry x="105.50363636363568" y="1.5008695652173714" width="7" height="7" as="geometry" />
        </mxCell>
        <mxCell id="Tk_3Gi3uglissdDTNCGx-213" value="" style="rounded=0;whiteSpace=wrap;html=1;strokeColor=#333333;fillColor=#222222;strokeWidth=0.5;movable=1;resizable=1;rotatable=1;deletable=1;editable=1;locked=0;connectable=1;container=0;" vertex="1" parent="Tk_3Gi3uglissdDTNCGx-217">
          <mxGeometry x="113.50363636363568" y="1.5008695652173714" width="7" height="7" as="geometry" />
        </mxCell>
        <mxCell id="Tk_3Gi3uglissdDTNCGx-214" value="" style="rounded=0;whiteSpace=wrap;html=1;strokeColor=#333333;fillColor=#222222;strokeWidth=0.5;movable=1;resizable=1;rotatable=1;deletable=1;editable=1;locked=0;connectable=1;container=0;" vertex="1" parent="Tk_3Gi3uglissdDTNCGx-217">
          <mxGeometry x="121.50363636363568" y="1.5008695652173714" width="7" height="7" as="geometry" />
        </mxCell>
        <mxCell id="Tk_3Gi3uglissdDTNCGx-215" value="" style="rounded=0;whiteSpace=wrap;html=1;strokeColor=#333333;fillColor=#222222;strokeWidth=0.5;movable=1;resizable=1;rotatable=1;deletable=1;editable=1;locked=0;connectable=1;container=0;" vertex="1" parent="Tk_3Gi3uglissdDTNCGx-217">
          <mxGeometry x="129.50363636363568" y="1.5008695652173714" width="7" height="7" as="geometry" />
        </mxCell>
        <mxCell id="Tk_3Gi3uglissdDTNCGx-216" value="" style="rounded=0;whiteSpace=wrap;html=1;strokeColor=#333333;fillColor=#222222;strokeWidth=0.5;movable=1;resizable=1;rotatable=1;deletable=1;editable=1;locked=0;connectable=1;container=0;" vertex="1" parent="Tk_3Gi3uglissdDTNCGx-217">
          <mxGeometry x="137.50363636363568" y="1.5008695652173714" width="7" height="7" as="geometry" />
        </mxCell>
      </root>
    </mxGraphModel>
  </diagram>
</mxfile>
